<?xml version="1.0" encoding="utf-8"?>
<!-- Generator: Adobe Illustrator 27.5.0, SVG Export Plug-In . SVG Version: 6.00 Build 0)  -->
<svg version="1.1" xmlns="http://www.w3.org/2000/svg" xmlns:xlink="http://www.w3.org/1999/xlink" x="0px" y="0px"
	 viewBox="0 0 500 500" style="enable-background:new 0 0 500 500;" xml:space="preserve">
<g id="BACKGROUND">
	<rect style="fill-rule:evenodd;clip-rule:evenodd;fill:#FFFFFF;" width="500" height="500"/>
</g>
<g id="OBJECTS">
	<g>
		<g>
			<path style="fill-rule:evenodd;clip-rule:evenodd;fill:#CCE2F0;" d="M98.42,405.099c-39.298,0-71.45-32.152-71.45-71.45l0,0
				c0-39.298,32.152-71.448,71.45-71.448l0,0c16.616-0.002,30.21-13.596,30.21-30.211l0,0c0-16.616-13.594-30.21-30.21-30.21h-3.595
				c-17.276,0-31.41-14.134-31.41-31.41l0,0c0-17.275,14.134-31.409,31.41-31.409h11.028c6.726,0,12.228-5.503,12.228-12.227l0,0
				c0-6.726-5.502-12.228-12.228-12.228h-8.104c-4.642,0-8.44-3.798-8.44-8.44l0,0c0-4.642,3.798-8.439,8.44-8.439h54.481
				c7.293,0,13.26-5.968,13.26-13.26v-0.001c0-7.293-5.967-13.259-13.26-13.259h-16.29c-4.642,0-8.439-3.798-8.439-8.44l0,0
				c0-4.642,3.797-8.44,8.439-8.44h238.588c6.056,0,11.012,4.956,11.012,11.013v0.001c0,6.055-4.956,11.012-11.012,11.012h-16.709
				c-9.516,0-17.303,7.787-17.303,17.303l0,0c0,9.516,7.787,17.303,17.303,17.303h64.632c6.057,0,11.011,4.956,11.011,11.012l0,0
				c0,6.057-4.954,11.013-11.011,11.013h-10.577c-8.775,0-15.954,7.181-15.954,15.956l0,0c0,8.776,7.179,15.955,15.954,15.955
				h14.393c22.542,0,40.985,18.444,40.985,40.986l0,0c0,22.541-18.443,40.985-40.985,40.985h-4.69
				c-21.681,0-39.42,17.739-39.42,39.421l0,0c0,21.681,17.739,39.42,39.42,39.42h10.159c21.86,0,39.746,17.886,39.746,39.748l0,0
				c0,21.858-17.886,39.746-39.746,39.746C318.636,405.099,211.519,405.099,98.42,405.099L98.42,405.099z M402.706,76.253
				c6.082,0,11.012-4.932,11.012-11.013c0-6.082-4.93-11.014-11.012-11.014s-11.012,4.932-11.012,11.014
				C391.694,71.321,396.624,76.253,402.706,76.253L402.706,76.253z M74.066,114.505c4.662,0,8.44-3.778,8.44-8.44
				c0-4.661-3.778-8.439-8.44-8.439c-4.661,0-8.439,3.778-8.439,8.439C65.627,110.727,69.405,114.505,74.066,114.505z"/>
			<g>
				<defs>
					<path id="SVGID_1_" d="M98.42,405.099c-39.298,0-71.45-32.152-71.45-71.45l0,0c0-39.298,32.152-71.448,71.45-71.448l0,0
						c16.616-0.002,30.21-13.596,30.21-30.211l0,0c0-16.616-13.594-30.21-30.21-30.21h-3.595c-17.276,0-31.41-14.134-31.41-31.41
						l0,0c0-17.275,14.134-31.409,31.41-31.409h11.028c6.726,0,12.228-5.503,12.228-12.227l0,0c0-6.726-5.502-12.228-12.228-12.228
						h-8.104c-4.642,0-8.44-3.798-8.44-8.44l0,0c0-4.642,3.798-8.439,8.44-8.439h54.481c7.293,0,13.26-5.968,13.26-13.26v-0.001
						c0-7.293-5.967-13.259-13.26-13.259h-16.29c-4.642,0-8.439-3.798-8.439-8.44l0,0c0-4.642,3.797-8.44,8.439-8.44h238.588
						c6.056,0,11.012,4.956,11.012,11.013v0.001c0,6.055-4.956,11.012-11.012,11.012h-16.709c-9.516,0-17.303,7.787-17.303,17.303
						l0,0c0,9.516,7.787,17.303,17.303,17.303h64.632c6.057,0,11.011,4.956,11.011,11.012l0,0c0,6.057-4.954,11.013-11.011,11.013
						h-10.577c-8.775,0-15.954,7.181-15.954,15.956l0,0c0,8.776,7.179,15.955,15.954,15.955h14.393
						c22.542,0,40.985,18.444,40.985,40.986l0,0c0,22.541-18.443,40.985-40.985,40.985h-4.69c-21.681,0-39.42,17.739-39.42,39.421
						l0,0c0,21.681,17.739,39.42,39.42,39.42h10.159c21.86,0,39.746,17.886,39.746,39.748l0,0c0,21.858-17.886,39.746-39.746,39.746
						C318.636,405.099,211.519,405.099,98.42,405.099L98.42,405.099z M402.706,76.253c6.082,0,11.012-4.932,11.012-11.013
						c0-6.082-4.93-11.014-11.012-11.014s-11.012,4.932-11.012,11.014C391.694,71.321,396.624,76.253,402.706,76.253L402.706,76.253
						z M74.066,114.505c4.662,0,8.44-3.778,8.44-8.44c0-4.661-3.778-8.439-8.44-8.439c-4.661,0-8.439,3.778-8.439,8.439
						C65.627,110.727,69.405,114.505,74.066,114.505z"/>
				</defs>
				<clipPath id="SVGID_00000011744911385104588270000011894947393329835685_">
					<use xlink:href="#SVGID_1_"  style="overflow:visible;"/>
				</clipPath>
				<g style="clip-path:url(#SVGID_00000011744911385104588270000011894947393329835685_);">
					<path style="fill-rule:evenodd;clip-rule:evenodd;fill:#94BFDF;" d="M42.523,469.141h0.361v-6.771h20.468h0.004h0.005h20.467
						v6.771h0.361v-6.771h20.467h0.005h0.005h20.467v6.771h0.361v-6.771h20.467h0.004h0.006h20.466v6.771h0.362v-6.771h20.467h0.004
						h0.005h20.467v6.771h0.362v-6.771h20.466h0.006h0.004h20.467v6.771h0.361v-6.771h20.468h0.005h0.004h20.466v6.771h0.362v-6.771
						h20.467h0.005h0.005h20.467v6.771h0.36v-6.771h20.468h0.004h0.005h20.467v6.771h0.362v-6.771h20.467h0.005h0.005h20.465v6.771
						h0.363v-6.771h20.467h0.004h0.005h20.467v6.771h0.361v-6.771h20.467h0.005h0.004h12.301v-0.361h-12.123v-11.877h12.123v-0.361
						h-12.301h-0.009h-20.467v-11.877h20.467h0.005h0.004h12.301v-0.362h-12.123v-11.876h12.123v-0.361h-12.301h-0.009h-20.467
						v-11.877h20.467h0.005h0.004h12.301v-0.361h-12.123v-11.876h12.123v-0.362h-12.301h-0.009h-20.467V388.94h20.467h0.005h0.004
						h12.301v-0.361h-12.123v-11.877h12.123v-0.361h-12.301h-0.009h-20.467v-11.876h20.467h0.005h0.004h12.301v-0.362h-12.123
						v-11.877h12.123v-0.362h-12.301h-0.009h-20.467v-11.876h20.467h0.005h0.004h12.301v-0.361h-12.123V327.75h12.123v-0.362
						h-12.301h-0.009h-20.467V315.51h20.467h0.005h0.004h12.301v-0.36h-12.123v-11.878h12.123v-0.361h-12.301h-0.009h-20.467
						v-11.876h20.467h0.005h0.004h12.301v-0.362h-12.123v-11.876h12.123v-0.363h-12.301h-0.009h-20.467v-11.876h20.467h0.005h0.004
						h12.301v-0.359h-12.123V254.32h12.123v-0.361h-12.301h-0.009h-20.467v-11.877h20.467h0.005h0.004h12.301v-0.362h-12.123
						v-11.876h12.123v-0.362h-12.301h-0.009h-20.467v-11.876h20.467h0.005h0.004h12.301v-0.362h-12.123v-11.877h12.123v-0.361
						h-12.301h-0.009h-20.467v-11.878h20.467h0.005h0.004h12.301v-0.361h-12.123v-11.877h12.123v-0.362h-12.301h-0.009h-20.467
						v-11.877h20.467h0.005h0.004h12.301v-0.361h-12.123v-11.877h12.123v-0.361h-12.301h-0.009h-20.467v-11.877h20.467h0.005h0.004
						h12.301v-0.361h-12.123v-11.877h12.123v-0.362h-12.301h-0.009h-20.467v-11.877h20.467h0.005h0.004h12.301v-0.361h-12.123
						v-11.877h12.123V107.1h-12.301h-0.009h-20.467V95.223h20.467h0.005h0.004h12.301v-0.362h-12.123V82.984h12.123v-0.361h-12.301
						h-0.009h-20.467V70.747h20.467h0.005h0.004h12.301v-0.362h-12.123V58.509h12.123v-0.363h-12.301h-0.009h-20.467V46.27h20.467
						h0.005h0.004h12.301v-0.362h-12.123V34.032h12.123V33.67h-12.301h-0.009h-20.467V21.794h20.467h0.005h0.004h12.301v-0.362
						h-12.123V9.555h12.123V9.193h-12.301h-0.009h-20.467V-2.683h20.467h0.005h0.004h12.301v-0.362h-12.123v-6.772h-0.362v6.772
						h-20.467h-0.01h-20.467v-6.772h-0.36v6.772h-20.467h-0.01h-20.468v-6.772h-0.361v6.772h-20.467h-0.01h-20.466v-6.772h-0.361
						v6.772H331.84h-0.01h-20.468v-6.772h-0.359v6.772h-20.468h-0.009H270.06v-6.772h-0.362v6.772H249.23h-0.009h-20.467v-6.772
						h-0.361v6.772h-20.468h-0.009h-20.466v-6.772h-0.363v6.772h-20.467h-0.008h-20.468v-6.772h-0.361v6.772h-20.467h-0.009h-20.467
						v-6.772h-0.362v6.772H84.014h-0.01H63.537v-6.772h-0.361v6.772H42.709h-0.01H22.233v-6.772h-0.361v6.772H9.748v0.362h12.3
						h0.005h0.004h20.467V9.193H22.057h-0.009h-12.3v0.362h12.124v11.877H9.748v0.362h12.3h0.005h0.004h20.467V33.67H22.057h-0.009
						h-12.3v0.362h12.124v11.876H9.748v0.362h12.3h0.005h0.004h20.467v11.876H22.057h-0.009h-12.3v0.363h12.124v11.876H9.748v0.362
						h12.3h0.005h0.004h20.467v11.876H22.057h-0.009h-12.3v0.361h12.124v11.877H9.748v0.362h12.3h0.005h0.004h20.467V107.1H22.057
						h-0.009h-12.3v0.361h12.124v11.877H9.748v0.361h12.3h0.005h0.004h20.467v11.877H22.057h-0.009h-12.3v0.362h12.124v11.877H9.748
						v0.361h12.3h0.005h0.004h20.467v11.877H22.057h-0.009h-12.3v0.361h12.124v11.877H9.748v0.361h12.3h0.005h0.004h20.467v11.877
						H22.057h-0.009h-12.3v0.362h12.124v11.877H9.748v0.361h12.3h0.005h0.004h20.467v11.878H22.057h-0.009h-12.3v0.361h12.124
						v11.877H9.748v0.362h12.3h0.005h0.004h20.467v11.876H22.057h-0.009h-12.3v0.362h12.124v11.876H9.748v0.362h12.3h0.005h0.004
						h20.467v11.877H22.057h-0.009h-12.3v0.361h12.124v11.878H9.748v0.359h12.3h0.005h0.004h20.467v11.876H22.057h-0.009h-12.3
						v0.363h12.124v11.876H9.748v0.362h12.3h0.005h0.004h20.467v11.876H22.057h-0.009h-12.3v0.361h12.124v11.878H9.748v0.36h12.3
						h0.005h0.004h20.467v11.877H22.057h-0.009h-12.3v0.362h12.124v11.876H9.748v0.361h12.3h0.005h0.004h20.467v11.876H22.057
						h-0.009h-12.3v0.362h12.124v11.877H9.748v0.362h12.3h0.005h0.004h20.467v11.876H22.057h-0.009h-12.3v0.361h12.124v11.877H9.748
						v0.361h12.3h0.005h0.004h20.467v11.877H22.057h-0.009h-12.3v0.362h12.124v11.876H9.748v0.361h12.3h0.005h0.004h20.467v11.877
						H22.057h-0.009h-12.3v0.361h12.124v11.876H9.748v0.362h12.3h0.005h0.004h20.467v11.877H22.057h-0.009h-12.3v0.361h12.124
						v11.877H9.748v0.361h12.3h0.005h0.004h20.467V469.141L42.523,469.141z M22.233,450.131h20.467h0.005h0.005h20.467v11.877
						H42.709h-0.01H22.233V450.131L22.233,450.131z M63.537,450.131h20.467h0.005h0.005h20.466v11.877H84.014h-0.01H63.537V450.131
						L63.537,450.131z M104.842,450.131h20.467h0.004h0.005h20.467v11.877h-20.467h-0.009h-20.467V450.131L104.842,450.131z
						 M146.145,450.131h20.468h0.004h0.004h20.467v11.877h-20.467h-0.008h-20.468V450.131L146.145,450.131z M187.451,450.131h20.466
						h0.005h0.004h20.468v11.877h-20.468h-0.009h-20.466V450.131L187.451,450.131z M228.754,450.131h20.467h0.005h0.004h20.467
						v11.877H249.23h-0.009h-20.467V450.131L228.754,450.131z M270.06,450.131h20.467h0.005h0.004h20.468v11.877h-20.468h-0.009
						H270.06V450.131L270.06,450.131z M311.362,450.131h20.468h0.005h0.005h20.467v11.877H331.84h-0.01h-20.468V450.131
						L311.362,450.131z M352.668,450.131h20.466h0.005h0.005h20.467v11.877h-20.467h-0.01h-20.466V450.131L352.668,450.131z
						 M393.972,450.131h20.468h0.005h0.005h20.467v11.877h-20.467h-0.01h-20.468V450.131L393.972,450.131z M435.276,450.131h20.467
						h0.005h0.005h20.467v11.877h-20.467h-0.01h-20.467V450.131L435.276,450.131z M42.884,437.893h20.468h0.004h0.005h20.467v11.877
						H63.361h-0.009H42.884V437.893L42.884,437.893z M84.189,437.893h20.467h0.005h0.005h20.467v11.877h-20.467h-0.01H84.189
						V437.893L84.189,437.893z M125.494,437.893h20.467h0.004h0.006h20.466v11.877H145.97h-0.01h-20.467V437.893L125.494,437.893z
						 M166.798,437.893h20.467h0.004h0.005h20.467v11.877h-20.467h-0.009h-20.467V437.893L166.798,437.893z M208.103,437.893h20.466
						h0.006h0.004h20.467v11.877h-20.467h-0.01h-20.466V437.893L208.103,437.893z M249.406,437.893h20.468h0.005h0.004h20.466
						v11.877h-20.466h-0.009h-20.468V437.893L249.406,437.893z M290.711,437.893h20.467h0.005h0.005h20.467v11.877h-20.467h-0.01
						h-20.467V437.893L290.711,437.893z M332.015,437.893h20.468h0.004h0.005h20.467v11.877h-20.467h-0.009h-20.468V437.893
						L332.015,437.893z M373.32,437.893h20.467h0.005h0.005h20.465v11.877h-20.465h-0.01H373.32V437.893L373.32,437.893z
						 M414.625,437.893h20.467h0.004h0.005h20.467v11.877h-20.467h-0.009h-20.467V437.893L414.625,437.893z M22.233,425.655h20.467
						h0.005h0.005h20.467v11.876H42.709h-0.01H22.233V425.655L22.233,425.655z M63.537,425.655h20.467h0.005h0.005h20.466v11.876
						H84.014h-0.01H63.537V425.655L63.537,425.655z M104.842,425.655h20.467h0.004h0.005h20.467v11.876h-20.467h-0.009h-20.467
						V425.655L104.842,425.655z M146.145,425.655h20.468h0.004h0.004h20.467v11.876h-20.467h-0.008h-20.468V425.655L146.145,425.655
						z M187.451,425.655h20.466h0.005h0.004h20.468v11.876h-20.468h-0.009h-20.466V425.655L187.451,425.655z M228.754,425.655
						h20.467h0.005h0.004h20.467v11.876H249.23h-0.009h-20.467V425.655L228.754,425.655z M270.06,425.655h20.467h0.005h0.004h20.468
						v11.876h-20.468h-0.009H270.06V425.655L270.06,425.655z M311.362,425.655h20.468h0.005h0.005h20.467v11.876H331.84h-0.01
						h-20.468V425.655L311.362,425.655z M352.668,425.655h20.466h0.005h0.005h20.467v11.876h-20.467h-0.01h-20.466V425.655
						L352.668,425.655z M393.972,425.655h20.468h0.005h0.005h20.467v11.876h-20.467h-0.01h-20.468V425.655L393.972,425.655z
						 M435.276,425.655h20.467h0.005h0.005h20.467v11.876h-20.467h-0.01h-20.467V425.655L435.276,425.655z M42.884,413.417h20.468
						h0.004h0.005h20.467v11.877H63.361h-0.009H42.884V413.417L42.884,413.417z M84.189,413.417h20.467h0.005h0.005h20.467v11.877
						h-20.467h-0.01H84.189V413.417L84.189,413.417z M125.494,413.417h20.467h0.004h0.006h20.466v11.877H145.97h-0.01h-20.467
						V413.417L125.494,413.417z M166.798,413.417h20.467h0.004h0.005h20.467v11.877h-20.467h-0.009h-20.467V413.417L166.798,413.417
						z M208.103,413.417h20.466h0.006h0.004h20.467v11.877h-20.467h-0.01h-20.466V413.417L208.103,413.417z M249.406,413.417h20.468
						h0.005h0.004h20.466v11.877h-20.466h-0.009h-20.468V413.417L249.406,413.417z M290.711,413.417h20.467h0.005h0.005h20.467
						v11.877h-20.467h-0.01h-20.467V413.417L290.711,413.417z M332.015,413.417h20.468h0.004h0.005h20.467v11.877h-20.467h-0.009
						h-20.468V413.417L332.015,413.417z M373.32,413.417h20.467h0.005h0.005h20.465v11.877h-20.465h-0.01H373.32V413.417
						L373.32,413.417z M414.625,413.417h20.467h0.004h0.005h20.467v11.877h-20.467h-0.009h-20.467V413.417L414.625,413.417z
						 M22.233,401.179h20.467h0.005h0.005h20.467v11.876H42.709h-0.01H22.233V401.179L22.233,401.179z M63.537,401.179h20.467h0.005
						h0.005h20.466v11.876H84.014h-0.01H63.537V401.179L63.537,401.179z M104.842,401.179h20.467h0.004h0.005h20.467v11.876h-20.467
						h-0.009h-20.467V401.179L104.842,401.179z M146.145,401.179h20.468h0.004h0.004h20.467v11.876h-20.467h-0.008h-20.468V401.179
						L146.145,401.179z M187.451,401.179h20.466h0.005h0.004h20.468v11.876h-20.468h-0.009h-20.466V401.179L187.451,401.179z
						 M228.754,401.179h20.467h0.005h0.004h20.467v11.876H249.23h-0.009h-20.467V401.179L228.754,401.179z M270.06,401.179h20.467
						h0.005h0.004h20.468v11.876h-20.468h-0.009H270.06V401.179L270.06,401.179z M311.362,401.179h20.468h0.005h0.005h20.467v11.876
						H331.84h-0.01h-20.468V401.179L311.362,401.179z M352.668,401.179h20.466h0.005h0.005h20.467v11.876h-20.467h-0.01h-20.466
						V401.179L352.668,401.179z M393.972,401.179h20.468h0.005h0.005h20.467v11.876h-20.467h-0.01h-20.468V401.179L393.972,401.179z
						 M435.276,401.179h20.467h0.005h0.005h20.467v11.876h-20.467h-0.01h-20.467V401.179L435.276,401.179z M42.884,388.94h20.468
						h0.004h0.005h20.467v11.877H63.361h-0.009H42.884V388.94L42.884,388.94z M84.189,388.94h20.467h0.005h0.005h20.467v11.877
						h-20.467h-0.01H84.189V388.94L84.189,388.94z M125.494,388.94h20.467h0.004h0.006h20.466v11.877H145.97h-0.01h-20.467V388.94
						L125.494,388.94z M166.798,388.94h20.467h0.004h0.005h20.467v11.877h-20.467h-0.009h-20.467V388.94L166.798,388.94z
						 M208.103,388.94h20.466h0.006h0.004h20.467v11.877h-20.467h-0.01h-20.466V388.94L208.103,388.94z M249.406,388.94h20.468
						h0.005h0.004h20.466v11.877h-20.466h-0.009h-20.468V388.94L249.406,388.94z M290.711,388.94h20.467h0.005h0.005h20.467v11.877
						h-20.467h-0.01h-20.467V388.94L290.711,388.94z M332.015,388.94h20.468h0.004h0.005h20.467v11.877h-20.467h-0.009h-20.468
						V388.94L332.015,388.94z M373.32,388.94h20.467h0.005h0.005h20.465v11.877h-20.465h-0.01H373.32V388.94L373.32,388.94z
						 M414.625,388.94h20.467h0.004h0.005h20.467v11.877h-20.467h-0.009h-20.467V388.94L414.625,388.94z M22.233,376.702h20.467
						h0.005h0.005h20.467v11.877H42.709h-0.01H22.233V376.702L22.233,376.702z M63.537,376.702h20.467h0.005h0.005h20.466v11.877
						H84.014h-0.01H63.537V376.702L63.537,376.702z M104.842,376.702h20.467h0.004h0.005h20.467v11.877h-20.467h-0.009h-20.467
						V376.702L104.842,376.702z M146.145,376.702h20.468h0.004h0.004h20.467v11.877h-20.467h-0.008h-20.468V376.702L146.145,376.702
						z M187.451,376.702h20.466h0.005h0.004h20.468v11.877h-20.468h-0.009h-20.466V376.702L187.451,376.702z M228.754,376.702
						h20.467h0.005h0.004h20.467v11.877H249.23h-0.009h-20.467V376.702L228.754,376.702z M270.06,376.702h20.467h0.005h0.004h20.468
						v11.877h-20.468h-0.009H270.06V376.702L270.06,376.702z M311.362,376.702h20.468h0.005h0.005h20.467v11.877H331.84h-0.01
						h-20.468V376.702L311.362,376.702z M352.668,376.702h20.466h0.005h0.005h20.467v11.877h-20.467h-0.01h-20.466V376.702
						L352.668,376.702z M393.972,376.702h20.468h0.005h0.005h20.467v11.877h-20.467h-0.01h-20.468V376.702L393.972,376.702z
						 M435.276,376.702h20.467h0.005h0.005h20.467v11.877h-20.467h-0.01h-20.467V376.702L435.276,376.702z M42.884,364.464h20.468
						h0.004h0.005h20.467v11.876H63.361h-0.009H42.884V364.464L42.884,364.464z M84.189,364.464h20.467h0.005h0.005h20.467v11.876
						h-20.467h-0.01H84.189V364.464L84.189,364.464z M125.494,364.464h20.467h0.004h0.006h20.466v11.876H145.97h-0.01h-20.467
						V364.464L125.494,364.464z M166.798,364.464h20.467h0.004h0.005h20.467v11.876h-20.467h-0.009h-20.467V364.464L166.798,364.464
						z M208.103,364.464h20.466h0.006h0.004h20.467v11.876h-20.467h-0.01h-20.466V364.464L208.103,364.464z M249.406,364.464h20.468
						h0.005h0.004h20.466v11.876h-20.466h-0.009h-20.468V364.464L249.406,364.464z M290.711,364.464h20.467h0.005h0.005h20.467
						v11.876h-20.467h-0.01h-20.467V364.464L290.711,364.464z M332.015,364.464h20.468h0.004h0.005h20.467v11.876h-20.467h-0.009
						h-20.468V364.464L332.015,364.464z M373.32,364.464h20.467h0.005h0.005h20.465v11.876h-20.465h-0.01H373.32V364.464
						L373.32,364.464z M414.625,364.464h20.467h0.004h0.005h20.467v11.876h-20.467h-0.009h-20.467V364.464L414.625,364.464z
						 M22.233,352.225h20.467h0.005h0.005h20.467v11.877H42.709h-0.01H22.233V352.225L22.233,352.225z M63.537,352.225h20.467h0.005
						h0.005h20.466v11.877H84.014h-0.01H63.537V352.225L63.537,352.225z M104.842,352.225h20.467h0.004h0.005h20.467v11.877h-20.467
						h-0.009h-20.467V352.225L104.842,352.225z M146.145,352.225h20.468h0.004h0.004h20.467v11.877h-20.467h-0.008h-20.468V352.225
						L146.145,352.225z M187.451,352.225h20.466h0.005h0.004h20.468v11.877h-20.468h-0.009h-20.466V352.225L187.451,352.225z
						 M228.754,352.225h20.467h0.005h0.004h20.467v11.877H249.23h-0.009h-20.467V352.225L228.754,352.225z M270.06,352.225h20.467
						h0.005h0.004h20.468v11.877h-20.468h-0.009H270.06V352.225L270.06,352.225z M311.362,352.225h20.468h0.005h0.005h20.467v11.877
						H331.84h-0.01h-20.468V352.225L311.362,352.225z M352.668,352.225h20.466h0.005h0.005h20.467v11.877h-20.467h-0.01h-20.466
						V352.225L352.668,352.225z M393.972,352.225h20.468h0.005h0.005h20.467v11.877h-20.467h-0.01h-20.468V352.225L393.972,352.225z
						 M435.276,352.225h20.467h0.005h0.005h20.467v11.877h-20.467h-0.01h-20.467V352.225L435.276,352.225z M42.884,339.987h20.468
						h0.004h0.005h20.467v11.876H63.361h-0.009H42.884V339.987L42.884,339.987z M84.189,339.987h20.467h0.005h0.005h20.467v11.876
						h-20.467h-0.01H84.189V339.987L84.189,339.987z M125.494,339.987h20.467h0.004h0.006h20.466v11.876H145.97h-0.01h-20.467
						V339.987L125.494,339.987z M166.798,339.987h20.467h0.004h0.005h20.467v11.876h-20.467h-0.009h-20.467V339.987L166.798,339.987
						z M208.103,339.987h20.466h0.006h0.004h20.467v11.876h-20.467h-0.01h-20.466V339.987L208.103,339.987z M249.406,339.987h20.468
						h0.005h0.004h20.466v11.876h-20.466h-0.009h-20.468V339.987L249.406,339.987z M290.711,339.987h20.467h0.005h0.005h20.467
						v11.876h-20.467h-0.01h-20.467V339.987L290.711,339.987z M332.015,339.987h20.468h0.004h0.005h20.467v11.876h-20.467h-0.009
						h-20.468V339.987L332.015,339.987z M373.32,339.987h20.467h0.005h0.005h20.465v11.876h-20.465h-0.01H373.32V339.987
						L373.32,339.987z M414.625,339.987h20.467h0.004h0.005h20.467v11.876h-20.467h-0.009h-20.467V339.987L414.625,339.987z
						 M22.233,327.75h20.467h0.005h0.005h20.467v11.876H42.709h-0.01H22.233V327.75L22.233,327.75z M63.537,327.75h20.467h0.005
						h0.005h20.466v11.876H84.014h-0.01H63.537V327.75L63.537,327.75z M104.842,327.75h20.467h0.004h0.005h20.467v11.876h-20.467
						h-0.009h-20.467V327.75L104.842,327.75z M146.145,327.75h20.468h0.004h0.004h20.467v11.876h-20.467h-0.008h-20.468V327.75
						L146.145,327.75z M187.451,327.75h20.466h0.005h0.004h20.468v11.876h-20.468h-0.009h-20.466V327.75L187.451,327.75z
						 M228.754,327.75h20.467h0.005h0.004h20.467v11.876H249.23h-0.009h-20.467V327.75L228.754,327.75z M270.06,327.75h20.467h0.005
						h0.004h20.468v11.876h-20.468h-0.009H270.06V327.75L270.06,327.75z M311.362,327.75h20.468h0.005h0.005h20.467v11.876H331.84
						h-0.01h-20.468V327.75L311.362,327.75z M352.668,327.75h20.466h0.005h0.005h20.467v11.876h-20.467h-0.01h-20.466V327.75
						L352.668,327.75z M393.972,327.75h20.468h0.005h0.005h20.467v11.876h-20.467h-0.01h-20.468V327.75L393.972,327.75z
						 M435.276,327.75h20.467h0.005h0.005h20.467v11.876h-20.467h-0.01h-20.467V327.75L435.276,327.75z M42.884,315.51h20.468h0.004
						h0.005h20.467v11.877H63.361h-0.009H42.884V315.51L42.884,315.51z M84.189,315.51h20.467h0.005h0.005h20.467v11.877h-20.467
						h-0.01H84.189V315.51L84.189,315.51z M125.494,315.51h20.467h0.004h0.006h20.466v11.877H145.97h-0.01h-20.467V315.51
						L125.494,315.51z M166.798,315.51h20.467h0.004h0.005h20.467v11.877h-20.467h-0.009h-20.467V315.51L166.798,315.51z
						 M208.103,315.51h20.466h0.006h0.004h20.467v11.877h-20.467h-0.01h-20.466V315.51L208.103,315.51z M249.406,315.51h20.468
						h0.005h0.004h20.466v11.877h-20.466h-0.009h-20.468V315.51L249.406,315.51z M290.711,315.51h20.467h0.005h0.005h20.467v11.877
						h-20.467h-0.01h-20.467V315.51L290.711,315.51z M332.015,315.51h20.468h0.004h0.005h20.467v11.877h-20.467h-0.009h-20.468
						V315.51L332.015,315.51z M373.32,315.51h20.467h0.005h0.005h20.465v11.877h-20.465h-0.01H373.32V315.51L373.32,315.51z
						 M414.625,315.51h20.467h0.004h0.005h20.467v11.877h-20.467h-0.009h-20.467V315.51L414.625,315.51z M22.233,303.272h20.467
						h0.005h0.005h20.467v11.878H42.709h-0.01H22.233V303.272L22.233,303.272z M63.537,303.272h20.467h0.005h0.005h20.466v11.878
						H84.014h-0.01H63.537V303.272L63.537,303.272z M104.842,303.272h20.467h0.004h0.005h20.467v11.878h-20.467h-0.009h-20.467
						V303.272L104.842,303.272z M146.145,303.272h20.468h0.004h0.004h20.467v11.878h-20.467h-0.008h-20.468V303.272L146.145,303.272
						z M187.451,303.272h20.466h0.005h0.004h20.468v11.878h-20.468h-0.009h-20.466V303.272L187.451,303.272z M228.754,303.272
						h20.467h0.005h0.004h20.467v11.878H249.23h-0.009h-20.467V303.272L228.754,303.272z M270.06,303.272h20.467h0.005h0.004h20.468
						v11.878h-20.468h-0.009H270.06V303.272L270.06,303.272z M311.362,303.272h20.468h0.005h0.005h20.467v11.878H331.84h-0.01
						h-20.468V303.272L311.362,303.272z M352.668,303.272h20.466h0.005h0.005h20.467v11.878h-20.467h-0.01h-20.466V303.272
						L352.668,303.272z M393.972,303.272h20.468h0.005h0.005h20.467v11.878h-20.467h-0.01h-20.468V303.272L393.972,303.272z
						 M435.276,303.272h20.467h0.005h0.005h20.467v11.878h-20.467h-0.01h-20.467V303.272L435.276,303.272z M42.884,291.035h20.468
						h0.004h0.005h20.467v11.876H63.361h-0.009H42.884V291.035L42.884,291.035z M84.189,291.035h20.467h0.005h0.005h20.467v11.876
						h-20.467h-0.01H84.189V291.035L84.189,291.035z M125.494,291.035h20.467h0.004h0.006h20.466v11.876H145.97h-0.01h-20.467
						V291.035L125.494,291.035z M166.798,291.035h20.467h0.004h0.005h20.467v11.876h-20.467h-0.009h-20.467V291.035L166.798,291.035
						z M208.103,291.035h20.466h0.006h0.004h20.467v11.876h-20.467h-0.01h-20.466V291.035L208.103,291.035z M249.406,291.035h20.468
						h0.005h0.004h20.466v11.876h-20.466h-0.009h-20.468V291.035L249.406,291.035z M290.711,291.035h20.467h0.005h0.005h20.467
						v11.876h-20.467h-0.01h-20.467V291.035L290.711,291.035z M332.015,291.035h20.468h0.004h0.005h20.467v11.876h-20.467h-0.009
						h-20.468V291.035L332.015,291.035z M373.32,291.035h20.467h0.005h0.005h20.465v11.876h-20.465h-0.01H373.32V291.035
						L373.32,291.035z M414.625,291.035h20.467h0.004h0.005h20.467v11.876h-20.467h-0.009h-20.467V291.035L414.625,291.035z
						 M22.233,278.796h20.467h0.005h0.005h20.467v11.876H42.709h-0.01H22.233V278.796L22.233,278.796z M63.537,278.796h20.467h0.005
						h0.005h20.466v11.876H84.014h-0.01H63.537V278.796L63.537,278.796z M104.842,278.796h20.467h0.004h0.005h20.467v11.876h-20.467
						h-0.009h-20.467V278.796L104.842,278.796z M146.145,278.796h20.468h0.004h0.004h20.467v11.876h-20.467h-0.008h-20.468V278.796
						L146.145,278.796z M187.451,278.796h20.466h0.005h0.004h20.468v11.876h-20.468h-0.009h-20.466V278.796L187.451,278.796z
						 M228.754,278.796h20.467h0.005h0.004h20.467v11.876H249.23h-0.009h-20.467V278.796L228.754,278.796z M270.06,278.796h20.467
						h0.005h0.004h20.468v11.876h-20.468h-0.009H270.06V278.796L270.06,278.796z M311.362,278.796h20.468h0.005h0.005h20.467v11.876
						H331.84h-0.01h-20.468V278.796L311.362,278.796z M352.668,278.796h20.466h0.005h0.005h20.467v11.876h-20.467h-0.01h-20.466
						V278.796L352.668,278.796z M393.972,278.796h20.468h0.005h0.005h20.467v11.876h-20.467h-0.01h-20.468V278.796L393.972,278.796z
						 M435.276,278.796h20.467h0.005h0.005h20.467v11.876h-20.467h-0.01h-20.467V278.796L435.276,278.796z M42.884,266.557h20.468
						h0.004h0.005h20.467v11.876H63.361h-0.009H42.884V266.557L42.884,266.557z M84.189,266.557h20.467h0.005h0.005h20.467v11.876
						h-20.467h-0.01H84.189V266.557L84.189,266.557z M125.494,266.557h20.467h0.004h0.006h20.466v11.876H145.97h-0.01h-20.467
						V266.557L125.494,266.557z M166.798,266.557h20.467h0.004h0.005h20.467v11.876h-20.467h-0.009h-20.467V266.557L166.798,266.557
						z M208.103,266.557h20.466h0.006h0.004h20.467v11.876h-20.467h-0.01h-20.466V266.557L208.103,266.557z M249.406,266.557h20.468
						h0.005h0.004h20.466v11.876h-20.466h-0.009h-20.468V266.557L249.406,266.557z M290.711,266.557h20.467h0.005h0.005h20.467
						v11.876h-20.467h-0.01h-20.467V266.557L290.711,266.557z M332.015,266.557h20.468h0.004h0.005h20.467v11.876h-20.467h-0.009
						h-20.468V266.557L332.015,266.557z M373.32,266.557h20.467h0.005h0.005h20.465v11.876h-20.465h-0.01H373.32V266.557
						L373.32,266.557z M414.625,266.557h20.467h0.004h0.005h20.467v11.876h-20.467h-0.009h-20.467V266.557L414.625,266.557z
						 M22.233,254.32h20.467h0.005h0.005h20.467v11.878H42.709h-0.01H22.233V254.32L22.233,254.32z M63.537,254.32h20.467h0.005
						h0.005h20.466v11.878H84.014h-0.01H63.537V254.32L63.537,254.32z M104.842,254.32h20.467h0.004h0.005h20.467v11.878h-20.467
						h-0.009h-20.467V254.32L104.842,254.32z M146.145,254.32h20.468h0.004h0.004h20.467v11.878h-20.467h-0.008h-20.468V254.32
						L146.145,254.32z M187.451,254.32h20.466h0.005h0.004h20.468v11.878h-20.468h-0.009h-20.466V254.32L187.451,254.32z
						 M228.754,254.32h20.467h0.005h0.004h20.467v11.878H249.23h-0.009h-20.467V254.32L228.754,254.32z M270.06,254.32h20.467h0.005
						h0.004h20.468v11.878h-20.468h-0.009H270.06V254.32L270.06,254.32z M311.362,254.32h20.468h0.005h0.005h20.467v11.878H331.84
						h-0.01h-20.468V254.32L311.362,254.32z M352.668,254.32h20.466h0.005h0.005h20.467v11.878h-20.467h-0.01h-20.466V254.32
						L352.668,254.32z M393.972,254.32h20.468h0.005h0.005h20.467v11.878h-20.467h-0.01h-20.468V254.32L393.972,254.32z
						 M435.276,254.32h20.467h0.005h0.005h20.467v11.878h-20.467h-0.01h-20.467V254.32L435.276,254.32z M42.884,242.082h20.468
						h0.004h0.005h20.467v11.877H63.361h-0.009H42.884V242.082L42.884,242.082z M84.189,242.082h20.467h0.005h0.005h20.467v11.877
						h-20.467h-0.01H84.189V242.082L84.189,242.082z M125.494,242.082h20.467h0.004h0.006h20.466v11.877H145.97h-0.01h-20.467
						V242.082L125.494,242.082z M166.798,242.082h20.467h0.004h0.005h20.467v11.877h-20.467h-0.009h-20.467V242.082L166.798,242.082
						z M208.103,242.082h20.466h0.006h0.004h20.467v11.877h-20.467h-0.01h-20.466V242.082L208.103,242.082z M249.406,242.082h20.468
						h0.005h0.004h20.466v11.877h-20.466h-0.009h-20.468V242.082L249.406,242.082z M290.711,242.082h20.467h0.005h0.005h20.467
						v11.877h-20.467h-0.01h-20.467V242.082L290.711,242.082z M332.015,242.082h20.468h0.004h0.005h20.467v11.877h-20.467h-0.009
						h-20.468V242.082L332.015,242.082z M373.32,242.082h20.467h0.005h0.005h20.465v11.877h-20.465h-0.01H373.32V242.082
						L373.32,242.082z M414.625,242.082h20.467h0.004h0.005h20.467v11.877h-20.467h-0.009h-20.467V242.082L414.625,242.082z
						 M22.233,229.843h20.467h0.005h0.005h20.467v11.876H42.709h-0.01H22.233V229.843L22.233,229.843z M63.537,229.843h20.467h0.005
						h0.005h20.466v11.876H84.014h-0.01H63.537V229.843L63.537,229.843z M104.842,229.843h20.467h0.004h0.005h20.467v11.876h-20.467
						h-0.009h-20.467V229.843L104.842,229.843z M146.145,229.843h20.468h0.004h0.004h20.467v11.876h-20.467h-0.008h-20.468V229.843
						L146.145,229.843z M187.451,229.843h20.466h0.005h0.004h20.468v11.876h-20.468h-0.009h-20.466V229.843L187.451,229.843z
						 M228.754,229.843h20.467h0.005h0.004h20.467v11.876H249.23h-0.009h-20.467V229.843L228.754,229.843z M270.06,229.843h20.467
						h0.005h0.004h20.468v11.876h-20.468h-0.009H270.06V229.843L270.06,229.843z M311.362,229.843h20.468h0.005h0.005h20.467v11.876
						H331.84h-0.01h-20.468V229.843L311.362,229.843z M352.668,229.843h20.466h0.005h0.005h20.467v11.876h-20.467h-0.01h-20.466
						V229.843L352.668,229.843z M393.972,229.843h20.468h0.005h0.005h20.467v11.876h-20.467h-0.01h-20.468V229.843L393.972,229.843z
						 M435.276,229.843h20.467h0.005h0.005h20.467v11.876h-20.467h-0.01h-20.467V229.843L435.276,229.843z M42.884,217.605h20.468
						h0.004h0.005h20.467v11.876H63.361h-0.009H42.884V217.605L42.884,217.605z M84.189,217.605h20.467h0.005h0.005h20.467v11.876
						h-20.467h-0.01H84.189V217.605L84.189,217.605z M125.494,217.605h20.467h0.004h0.006h20.466v11.876H145.97h-0.01h-20.467
						V217.605L125.494,217.605z M166.798,217.605h20.467h0.004h0.005h20.467v11.876h-20.467h-0.009h-20.467V217.605L166.798,217.605
						z M208.103,217.605h20.466h0.006h0.004h20.467v11.876h-20.467h-0.01h-20.466V217.605L208.103,217.605z M249.406,217.605h20.468
						h0.005h0.004h20.466v11.876h-20.466h-0.009h-20.468V217.605L249.406,217.605z M290.711,217.605h20.467h0.005h0.005h20.467
						v11.876h-20.467h-0.01h-20.467V217.605L290.711,217.605z M332.015,217.605h20.468h0.004h0.005h20.467v11.876h-20.467h-0.009
						h-20.468V217.605L332.015,217.605z M373.32,217.605h20.467h0.005h0.005h20.465v11.876h-20.465h-0.01H373.32V217.605
						L373.32,217.605z M414.625,217.605h20.467h0.004h0.005h20.467v11.876h-20.467h-0.009h-20.467V217.605L414.625,217.605z
						 M22.233,205.367h20.467h0.005h0.005h20.467v11.877H42.709h-0.01H22.233V205.367L22.233,205.367z M63.537,205.367h20.467h0.005
						h0.005h20.466v11.877H84.014h-0.01H63.537V205.367L63.537,205.367z M104.842,205.367h20.467h0.004h0.005h20.467v11.877h-20.467
						h-0.009h-20.467V205.367L104.842,205.367z M146.145,205.367h20.468h0.004h0.004h20.467v11.877h-20.467h-0.008h-20.468V205.367
						L146.145,205.367z M187.451,205.367h20.466h0.005h0.004h20.468v11.877h-20.468h-0.009h-20.466V205.367L187.451,205.367z
						 M228.754,205.367h20.467h0.005h0.004h20.467v11.877H249.23h-0.009h-20.467V205.367L228.754,205.367z M270.06,205.367h20.467
						h0.005h0.004h20.468v11.877h-20.468h-0.009H270.06V205.367L270.06,205.367z M311.362,205.367h20.468h0.005h0.005h20.467v11.877
						H331.84h-0.01h-20.468V205.367L311.362,205.367z M352.668,205.367h20.466h0.005h0.005h20.467v11.877h-20.467h-0.01h-20.466
						V205.367L352.668,205.367z M393.972,205.367h20.468h0.005h0.005h20.467v11.877h-20.467h-0.01h-20.468V205.367L393.972,205.367z
						 M435.276,205.367h20.467h0.005h0.005h20.467v11.877h-20.467h-0.01h-20.467V205.367L435.276,205.367z M42.884,193.128h20.468
						h0.004h0.005h20.467v11.878H63.361h-0.009H42.884V193.128L42.884,193.128z M84.189,193.128h20.467h0.005h0.005h20.467v11.878
						h-20.467h-0.01H84.189V193.128L84.189,193.128z M125.494,193.128h20.467h0.004h0.006h20.466v11.878H145.97h-0.01h-20.467
						V193.128L125.494,193.128z M166.798,193.128h20.467h0.004h0.005h20.467v11.878h-20.467h-0.009h-20.467V193.128L166.798,193.128
						z M208.103,193.128h20.466h0.006h0.004h20.467v11.878h-20.467h-0.01h-20.466V193.128L208.103,193.128z M249.406,193.128h20.468
						h0.005h0.004h20.466v11.878h-20.466h-0.009h-20.468V193.128L249.406,193.128z M290.711,193.128h20.467h0.005h0.005h20.467
						v11.878h-20.467h-0.01h-20.467V193.128L290.711,193.128z M332.015,193.128h20.468h0.004h0.005h20.467v11.878h-20.467h-0.009
						h-20.468V193.128L332.015,193.128z M373.32,193.128h20.467h0.005h0.005h20.465v11.878h-20.465h-0.01H373.32V193.128
						L373.32,193.128z M414.625,193.128h20.467h0.004h0.005h20.467v11.878h-20.467h-0.009h-20.467V193.128L414.625,193.128z
						 M22.233,180.891h20.467h0.005h0.005h20.467v11.877H42.709h-0.01H22.233V180.891L22.233,180.891z M63.537,180.891h20.467h0.005
						h0.005h20.466v11.877H84.014h-0.01H63.537V180.891L63.537,180.891z M104.842,180.891h20.467h0.004h0.005h20.467v11.877h-20.467
						h-0.009h-20.467V180.891L104.842,180.891z M146.145,180.891h20.468h0.004h0.004h20.467v11.877h-20.467h-0.008h-20.468V180.891
						L146.145,180.891z M187.451,180.891h20.466h0.005h0.004h20.468v11.877h-20.468h-0.009h-20.466V180.891L187.451,180.891z
						 M228.754,180.891h20.467h0.005h0.004h20.467v11.877H249.23h-0.009h-20.467V180.891L228.754,180.891z M270.06,180.891h20.467
						h0.005h0.004h20.468v11.877h-20.468h-0.009H270.06V180.891L270.06,180.891z M311.362,180.891h20.468h0.005h0.005h20.467v11.877
						H331.84h-0.01h-20.468V180.891L311.362,180.891z M352.668,180.891h20.466h0.005h0.005h20.467v11.877h-20.467h-0.01h-20.466
						V180.891L352.668,180.891z M393.972,180.891h20.468h0.005h0.005h20.467v11.877h-20.467h-0.01h-20.468V180.891L393.972,180.891z
						 M435.276,180.891h20.467h0.005h0.005h20.467v11.877h-20.467h-0.01h-20.467V180.891L435.276,180.891z M42.884,168.652h20.468
						h0.004h0.005h20.467v11.877H63.361h-0.009H42.884V168.652L42.884,168.652z M84.189,168.652h20.467h0.005h0.005h20.467v11.877
						h-20.467h-0.01H84.189V168.652L84.189,168.652z M125.494,168.652h20.467h0.004h0.006h20.466v11.877H145.97h-0.01h-20.467
						V168.652L125.494,168.652z M166.798,168.652h20.467h0.004h0.005h20.467v11.877h-20.467h-0.009h-20.467V168.652L166.798,168.652
						z M208.103,168.652h20.466h0.006h0.004h20.467v11.877h-20.467h-0.01h-20.466V168.652L208.103,168.652z M249.406,168.652h20.468
						h0.005h0.004h20.466v11.877h-20.466h-0.009h-20.468V168.652L249.406,168.652z M290.711,168.652h20.467h0.005h0.005h20.467
						v11.877h-20.467h-0.01h-20.467V168.652L290.711,168.652z M332.015,168.652h20.468h0.004h0.005h20.467v11.877h-20.467h-0.009
						h-20.468V168.652L332.015,168.652z M373.32,168.652h20.467h0.005h0.005h20.465v11.877h-20.465h-0.01H373.32V168.652
						L373.32,168.652z M414.625,168.652h20.467h0.004h0.005h20.467v11.877h-20.467h-0.009h-20.467V168.652L414.625,168.652z
						 M22.233,156.414h20.467h0.005h0.005h20.467v11.877H42.709h-0.01H22.233V156.414L22.233,156.414z M63.537,156.414h20.467h0.005
						h0.005h20.466v11.877H84.014h-0.01H63.537V156.414L63.537,156.414z M104.842,156.414h20.467h0.004h0.005h20.467v11.877h-20.467
						h-0.009h-20.467V156.414L104.842,156.414z M146.145,156.414h20.468h0.004h0.004h20.467v11.877h-20.467h-0.008h-20.468V156.414
						L146.145,156.414z M187.451,156.414h20.466h0.005h0.004h20.468v11.877h-20.468h-0.009h-20.466V156.414L187.451,156.414z
						 M228.754,156.414h20.467h0.005h0.004h20.467v11.877H249.23h-0.009h-20.467V156.414L228.754,156.414z M270.06,156.414h20.467
						h0.005h0.004h20.468v11.877h-20.468h-0.009H270.06V156.414L270.06,156.414z M311.362,156.414h20.468h0.005h0.005h20.467v11.877
						H331.84h-0.01h-20.468V156.414L311.362,156.414z M352.668,156.414h20.466h0.005h0.005h20.467v11.877h-20.467h-0.01h-20.466
						V156.414L352.668,156.414z M393.972,156.414h20.468h0.005h0.005h20.467v11.877h-20.467h-0.01h-20.468V156.414L393.972,156.414z
						 M435.276,156.414h20.467h0.005h0.005h20.467v11.877h-20.467h-0.01h-20.467V156.414L435.276,156.414z M42.884,144.176h20.468
						h0.004h0.005h20.467v11.877H63.361h-0.009H42.884V144.176L42.884,144.176z M84.189,144.176h20.467h0.005h0.005h20.467v11.877
						h-20.467h-0.01H84.189V144.176L84.189,144.176z M125.494,144.176h20.467h0.004h0.006h20.466v11.877H145.97h-0.01h-20.467
						V144.176L125.494,144.176z M166.798,144.176h20.467h0.004h0.005h20.467v11.877h-20.467h-0.009h-20.467V144.176L166.798,144.176
						z M208.103,144.176h20.466h0.006h0.004h20.467v11.877h-20.467h-0.01h-20.466V144.176L208.103,144.176z M249.406,144.176h20.468
						h0.005h0.004h20.466v11.877h-20.466h-0.009h-20.468V144.176L249.406,144.176z M290.711,144.176h20.467h0.005h0.005h20.467
						v11.877h-20.467h-0.01h-20.467V144.176L290.711,144.176z M332.015,144.176h20.468h0.004h0.005h20.467v11.877h-20.467h-0.009
						h-20.468V144.176L332.015,144.176z M373.32,144.176h20.467h0.005h0.005h20.465v11.877h-20.465h-0.01H373.32V144.176
						L373.32,144.176z M414.625,144.176h20.467h0.004h0.005h20.467v11.877h-20.467h-0.009h-20.467V144.176L414.625,144.176z
						 M22.233,131.938h20.467h0.005h0.005h20.467v11.877H42.709h-0.01H22.233V131.938L22.233,131.938z M63.537,131.938h20.467h0.005
						h0.005h20.466v11.877H84.014h-0.01H63.537V131.938L63.537,131.938z M104.842,131.938h20.467h0.004h0.005h20.467v11.877h-20.467
						h-0.009h-20.467V131.938L104.842,131.938z M146.145,131.938h20.468h0.004h0.004h20.467v11.877h-20.467h-0.008h-20.468V131.938
						L146.145,131.938z M187.451,131.938h20.466h0.005h0.004h20.468v11.877h-20.468h-0.009h-20.466V131.938L187.451,131.938z
						 M228.754,131.938h20.467h0.005h0.004h20.467v11.877H249.23h-0.009h-20.467V131.938L228.754,131.938z M270.06,131.938h20.467
						h0.005h0.004h20.468v11.877h-20.468h-0.009H270.06V131.938L270.06,131.938z M311.362,131.938h20.468h0.005h0.005h20.467v11.877
						H331.84h-0.01h-20.468V131.938L311.362,131.938z M352.668,131.938h20.466h0.005h0.005h20.467v11.877h-20.467h-0.01h-20.466
						V131.938L352.668,131.938z M393.972,131.938h20.468h0.005h0.005h20.467v11.877h-20.467h-0.01h-20.468V131.938L393.972,131.938z
						 M435.276,131.938h20.467h0.005h0.005h20.467v11.877h-20.467h-0.01h-20.467V131.938L435.276,131.938z M42.884,119.699h20.468
						h0.004h0.005h20.467v11.877H63.361h-0.009H42.884V119.699L42.884,119.699z M84.189,119.699h20.467h0.005h0.005h20.467v11.877
						h-20.467h-0.01H84.189V119.699L84.189,119.699z M125.494,119.699h20.467h0.004h0.006h20.466v11.877H145.97h-0.01h-20.467
						V119.699L125.494,119.699z M166.798,119.699h20.467h0.004h0.005h20.467v11.877h-20.467h-0.009h-20.467V119.699L166.798,119.699
						z M208.103,119.699h20.466h0.006h0.004h20.467v11.877h-20.467h-0.01h-20.466V119.699L208.103,119.699z M249.406,119.699h20.468
						h0.005h0.004h20.466v11.877h-20.466h-0.009h-20.468V119.699L249.406,119.699z M290.711,119.699h20.467h0.005h0.005h20.467
						v11.877h-20.467h-0.01h-20.467V119.699L290.711,119.699z M332.015,119.699h20.468h0.004h0.005h20.467v11.877h-20.467h-0.009
						h-20.468V119.699L332.015,119.699z M373.32,119.699h20.467h0.005h0.005h20.465v11.877h-20.465h-0.01H373.32V119.699
						L373.32,119.699z M414.625,119.699h20.467h0.004h0.005h20.467v11.877h-20.467h-0.009h-20.467V119.699L414.625,119.699z
						 M22.233,107.461h20.467h0.005h0.005h20.467v11.877H42.709h-0.01H22.233V107.461L22.233,107.461z M63.537,107.461h20.467h0.005
						h0.005h20.466v11.877H84.014h-0.01H63.537V107.461L63.537,107.461z M104.842,107.461h20.467h0.004h0.005h20.467v11.877h-20.467
						h-0.009h-20.467V107.461L104.842,107.461z M146.145,107.461h20.468h0.004h0.004h20.467v11.877h-20.467h-0.008h-20.468V107.461
						L146.145,107.461z M187.451,107.461h20.466h0.005h0.004h20.468v11.877h-20.468h-0.009h-20.466V107.461L187.451,107.461z
						 M228.754,107.461h20.467h0.005h0.004h20.467v11.877H249.23h-0.009h-20.467V107.461L228.754,107.461z M270.06,107.461h20.467
						h0.005h0.004h20.468v11.877h-20.468h-0.009H270.06V107.461L270.06,107.461z M311.362,107.461h20.468h0.005h0.005h20.467v11.877
						H331.84h-0.01h-20.468V107.461L311.362,107.461z M352.668,107.461h20.466h0.005h0.005h20.467v11.877h-20.467h-0.01h-20.466
						V107.461L352.668,107.461z M393.972,107.461h20.468h0.005h0.005h20.467v11.877h-20.467h-0.01h-20.468V107.461L393.972,107.461z
						 M435.276,107.461h20.467h0.005h0.005h20.467v11.877h-20.467h-0.01h-20.467V107.461L435.276,107.461z M42.884,95.223h20.468
						h0.004h0.005h20.467V107.1H63.361h-0.009H42.884V95.223L42.884,95.223z M84.189,95.223h20.467h0.005h0.005h20.467V107.1
						h-20.467h-0.01H84.189V95.223L84.189,95.223z M125.494,95.223h20.467h0.004h0.006h20.466V107.1H145.97h-0.01h-20.467V95.223
						L125.494,95.223z M166.798,95.223h20.467h0.004h0.005h20.467V107.1h-20.467h-0.009h-20.467V95.223L166.798,95.223z
						 M208.103,95.223h20.466h0.006h0.004h20.467V107.1h-20.467h-0.01h-20.466V95.223L208.103,95.223z M249.406,95.223h20.468h0.005
						h0.004h20.466V107.1h-20.466h-0.009h-20.468V95.223L249.406,95.223z M290.711,95.223h20.467h0.005h0.005h20.467V107.1h-20.467
						h-0.01h-20.467V95.223L290.711,95.223z M332.015,95.223h20.468h0.004h0.005h20.467V107.1h-20.467h-0.009h-20.468V95.223
						L332.015,95.223z M373.32,95.223h20.467h0.005h0.005h20.465V107.1h-20.465h-0.01H373.32V95.223L373.32,95.223z M414.625,95.223
						h20.467h0.004h0.005h20.467V107.1h-20.467h-0.009h-20.467V95.223L414.625,95.223z M22.233,82.984h20.467h0.005h0.005h20.467
						v11.877H42.709h-0.01H22.233V82.984L22.233,82.984z M63.537,82.984h20.467h0.005h0.005h20.466v11.877H84.014h-0.01H63.537
						V82.984L63.537,82.984z M104.842,82.984h20.467h0.004h0.005h20.467v11.877h-20.467h-0.009h-20.467V82.984L104.842,82.984z
						 M146.145,82.984h20.468h0.004h0.004h20.467v11.877h-20.467h-0.008h-20.468V82.984L146.145,82.984z M187.451,82.984h20.466
						h0.005h0.004h20.468v11.877h-20.468h-0.009h-20.466V82.984L187.451,82.984z M228.754,82.984h20.467h0.005h0.004h20.467v11.877
						H249.23h-0.009h-20.467V82.984L228.754,82.984z M270.06,82.984h20.467h0.005h0.004h20.468v11.877h-20.468h-0.009H270.06V82.984
						L270.06,82.984z M311.362,82.984h20.468h0.005h0.005h20.467v11.877H331.84h-0.01h-20.468V82.984L311.362,82.984z
						 M352.668,82.984h20.466h0.005h0.005h20.467v11.877h-20.467h-0.01h-20.466V82.984L352.668,82.984z M393.972,82.984h20.468
						h0.005h0.005h20.467v11.877h-20.467h-0.01h-20.468V82.984L393.972,82.984z M435.276,82.984h20.467h0.005h0.005h20.467v11.877
						h-20.467h-0.01h-20.467V82.984L435.276,82.984z M42.884,70.747h20.468h0.004h0.005h20.467v11.876H63.361h-0.009H42.884V70.747
						L42.884,70.747z M84.189,70.747h20.467h0.005h0.005h20.467v11.876h-20.467h-0.01H84.189V70.747L84.189,70.747z M125.494,70.747
						h20.467h0.004h0.006h20.466v11.876H145.97h-0.01h-20.467V70.747L125.494,70.747z M166.798,70.747h20.467h0.004h0.005h20.467
						v11.876h-20.467h-0.009h-20.467V70.747L166.798,70.747z M208.103,70.747h20.466h0.006h0.004h20.467v11.876h-20.467h-0.01
						h-20.466V70.747L208.103,70.747z M249.406,70.747h20.468h0.005h0.004h20.466v11.876h-20.466h-0.009h-20.468V70.747
						L249.406,70.747z M290.711,70.747h20.467h0.005h0.005h20.467v11.876h-20.467h-0.01h-20.467V70.747L290.711,70.747z
						 M332.015,70.747h20.468h0.004h0.005h20.467v11.876h-20.467h-0.009h-20.468V70.747L332.015,70.747z M373.32,70.747h20.467
						h0.005h0.005h20.465v11.876h-20.465h-0.01H373.32V70.747L373.32,70.747z M414.625,70.747h20.467h0.004h0.005h20.467v11.876
						h-20.467h-0.009h-20.467V70.747L414.625,70.747z M22.233,58.509h20.467h0.005h0.005h20.467v11.876H42.709h-0.01H22.233V58.509
						L22.233,58.509z M63.537,58.509h20.467h0.005h0.005h20.466v11.876H84.014h-0.01H63.537V58.509L63.537,58.509z M104.842,58.509
						h20.467h0.004h0.005h20.467v11.876h-20.467h-0.009h-20.467V58.509L104.842,58.509z M146.145,58.509h20.468h0.004h0.004h20.467
						v11.876h-20.467h-0.008h-20.468V58.509L146.145,58.509z M187.451,58.509h20.466h0.005h0.004h20.468v11.876h-20.468h-0.009
						h-20.466V58.509L187.451,58.509z M228.754,58.509h20.467h0.005h0.004h20.467v11.876H249.23h-0.009h-20.467V58.509
						L228.754,58.509z M270.06,58.509h20.467h0.005h0.004h20.468v11.876h-20.468h-0.009H270.06V58.509L270.06,58.509z
						 M311.362,58.509h20.468h0.005h0.005h20.467v11.876H331.84h-0.01h-20.468V58.509L311.362,58.509z M352.668,58.509h20.466h0.005
						h0.005h20.467v11.876h-20.467h-0.01h-20.466V58.509L352.668,58.509z M393.972,58.509h20.468h0.005h0.005h20.467v11.876h-20.467
						h-0.01h-20.468V58.509L393.972,58.509z M435.276,58.509h20.467h0.005h0.005h20.467v11.876h-20.467h-0.01h-20.467V58.509
						L435.276,58.509z M42.884,46.27h20.468h0.004h0.005h20.467v11.876H63.361h-0.009H42.884V46.27L42.884,46.27z M84.189,46.27
						h20.467h0.005h0.005h20.467v11.876h-20.467h-0.01H84.189V46.27L84.189,46.27z M125.494,46.27h20.467h0.004h0.006h20.466v11.876
						H145.97h-0.01h-20.467V46.27L125.494,46.27z M166.798,46.27h20.467h0.004h0.005h20.467v11.876h-20.467h-0.009h-20.467V46.27
						L166.798,46.27z M208.103,46.27h20.466h0.006h0.004h20.467v11.876h-20.467h-0.01h-20.466V46.27L208.103,46.27z M249.406,46.27
						h20.468h0.005h0.004h20.466v11.876h-20.466h-0.009h-20.468V46.27L249.406,46.27z M290.711,46.27h20.467h0.005h0.005h20.467
						v11.876h-20.467h-0.01h-20.467V46.27L290.711,46.27z M332.015,46.27h20.468h0.004h0.005h20.467v11.876h-20.467h-0.009h-20.468
						V46.27L332.015,46.27z M373.32,46.27h20.467h0.005h0.005h20.465v11.876h-20.465h-0.01H373.32V46.27L373.32,46.27z
						 M414.625,46.27h20.467h0.004h0.005h20.467v11.876h-20.467h-0.009h-20.467V46.27L414.625,46.27z M22.233,34.032h20.467h0.005
						h0.005h20.467v11.876H42.709h-0.01H22.233V34.032L22.233,34.032z M63.537,34.032h20.467h0.005h0.005h20.466v11.876H84.014
						h-0.01H63.537V34.032L63.537,34.032z M104.842,34.032h20.467h0.004h0.005h20.467v11.876h-20.467h-0.009h-20.467V34.032
						L104.842,34.032z M146.145,34.032h20.468h0.004h0.004h20.467v11.876h-20.467h-0.008h-20.468V34.032L146.145,34.032z
						 M187.451,34.032h20.466h0.005h0.004h20.468v11.876h-20.468h-0.009h-20.466V34.032L187.451,34.032z M228.754,34.032h20.467
						h0.005h0.004h20.467v11.876H249.23h-0.009h-20.467V34.032L228.754,34.032z M270.06,34.032h20.467h0.005h0.004h20.468v11.876
						h-20.468h-0.009H270.06V34.032L270.06,34.032z M311.362,34.032h20.468h0.005h0.005h20.467v11.876H331.84h-0.01h-20.468V34.032
						L311.362,34.032z M352.668,34.032h20.466h0.005h0.005h20.467v11.876h-20.467h-0.01h-20.466V34.032L352.668,34.032z
						 M393.972,34.032h20.468h0.005h0.005h20.467v11.876h-20.467h-0.01h-20.468V34.032L393.972,34.032z M435.276,34.032h20.467
						h0.005h0.005h20.467v11.876h-20.467h-0.01h-20.467V34.032L435.276,34.032z M42.884,21.794h20.468h0.004h0.005h20.467V33.67
						H63.361h-0.009H42.884V21.794L42.884,21.794z M84.189,21.794h20.467h0.005h0.005h20.467V33.67h-20.467h-0.01H84.189V21.794
						L84.189,21.794z M125.494,21.794h20.467h0.004h0.006h20.466V33.67H145.97h-0.01h-20.467V21.794L125.494,21.794z
						 M166.798,21.794h20.467h0.004h0.005h20.467V33.67h-20.467h-0.009h-20.467V21.794L166.798,21.794z M208.103,21.794h20.466
						h0.006h0.004h20.467V33.67h-20.467h-0.01h-20.466V21.794L208.103,21.794z M249.406,21.794h20.468h0.005h0.004h20.466V33.67
						h-20.466h-0.009h-20.468V21.794L249.406,21.794z M290.711,21.794h20.467h0.005h0.005h20.467V33.67h-20.467h-0.01h-20.467
						V21.794L290.711,21.794z M332.015,21.794h20.468h0.004h0.005h20.467V33.67h-20.467h-0.009h-20.468V21.794L332.015,21.794z
						 M373.32,21.794h20.467h0.005h0.005h20.465V33.67h-20.465h-0.01H373.32V21.794L373.32,21.794z M414.625,21.794h20.467h0.004
						h0.005h20.467V33.67h-20.467h-0.009h-20.467V21.794L414.625,21.794z M22.233,9.555h20.467h0.005h0.005h20.467v11.877H42.709
						h-0.01H22.233V9.555L22.233,9.555z M63.537,9.555h20.467h0.005h0.005h20.466v11.877H84.014h-0.01H63.537V9.555L63.537,9.555z
						 M104.842,9.555h20.467h0.004h0.005h20.467v11.877h-20.467h-0.009h-20.467V9.555L104.842,9.555z M146.145,9.555h20.468h0.004
						h0.004h20.467v11.877h-20.467h-0.008h-20.468V9.555L146.145,9.555z M187.451,9.555h20.466h0.005h0.004h20.468v11.877h-20.468
						h-0.009h-20.466V9.555L187.451,9.555z M228.754,9.555h20.467h0.005h0.004h20.467v11.877H249.23h-0.009h-20.467V9.555
						L228.754,9.555z M270.06,9.555h20.467h0.005h0.004h20.468v11.877h-20.468h-0.009H270.06V9.555L270.06,9.555z M311.362,9.555
						h20.468h0.005h0.005h20.467v11.877H331.84h-0.01h-20.468V9.555L311.362,9.555z M352.668,9.555h20.466h0.005h0.005h20.467
						v11.877h-20.467h-0.01h-20.466V9.555L352.668,9.555z M393.972,9.555h20.468h0.005h0.005h20.467v11.877h-20.467h-0.01h-20.468
						V9.555L393.972,9.555z M435.276,9.555h20.467h0.005h0.005h20.467v11.877h-20.467h-0.01h-20.467V9.555L435.276,9.555z
						 M42.884-2.683h20.468h0.004h0.005h20.467V9.193H63.361h-0.009H42.884V-2.683L42.884-2.683z M84.189-2.683h20.467h0.005h0.005
						h20.467V9.193h-20.467h-0.01H84.189V-2.683L84.189-2.683z M125.494-2.683h20.467h0.004h0.006h20.466V9.193H145.97h-0.01
						h-20.467V-2.683L125.494-2.683z M166.798-2.683h20.467h0.004h0.005h20.467V9.193h-20.467h-0.009h-20.467V-2.683L166.798-2.683z
						 M208.103-2.683h20.466h0.006h0.004h20.467V9.193h-20.467h-0.01h-20.466V-2.683L208.103-2.683z M249.406-2.683h20.468h0.005
						h0.004h20.466V9.193h-20.466h-0.009h-20.468V-2.683L249.406-2.683z M290.711-2.683h20.467h0.005h0.005h20.467V9.193h-20.467
						h-0.01h-20.467V-2.683L290.711-2.683z M332.015-2.683h20.468h0.004h0.005h20.467V9.193h-20.467h-0.009h-20.468V-2.683
						L332.015-2.683z M373.32-2.683h20.467h0.005h0.005h20.465V9.193h-20.465h-0.01H373.32V-2.683L373.32-2.683z M414.625-2.683
						h20.467h0.004h0.005h20.467V9.193h-20.467h-0.009h-20.467V-2.683z"/>
				</g>
			</g>
			<path style="fill-rule:evenodd;clip-rule:evenodd;fill:#94BFDF;" d="M387.815,306.47H32.376
				c-3.479,8.389-5.406,17.569-5.406,27.179l0,0c0,39.298,32.152,71.45,71.45,71.45h333.315c21.86,0,39.746-17.888,39.746-39.746
				l0,0c0-21.862-17.886-39.748-39.746-39.748h-10.159C407.3,325.605,394.733,317.914,387.815,306.47z"/>
			<path style="fill-rule:evenodd;clip-rule:evenodd;fill:#E6F1FA;" d="M383.678,297.016H37.149
				c-5.337,8.871-8.803,18.979-9.845,29.77h414.02c-3.074-0.77-6.286-1.181-9.589-1.181h-10.159
				C403.647,325.605,388.414,313.474,383.678,297.016z"/>
		</g>
		<g>
			<path style="fill-rule:evenodd;clip-rule:evenodd;fill:#94BFDF;" d="M94.527,189.852c11.589,0,21.042-9.451,21.042-21.041
				c0-11.589-9.452-21.04-21.042-21.04s-21.042,9.451-21.042,21.04C73.485,180.401,82.938,189.852,94.527,189.852z"/>
			<path style="fill-rule:evenodd;clip-rule:evenodd;fill:#FFFFFF;" d="M90.917,187.044c11.589,0,21.042-9.451,21.042-21.041
				c0-11.588-9.452-21.04-21.042-21.04c-11.588,0-21.041,9.451-21.041,21.04C69.876,177.593,79.328,187.044,90.917,187.044z"/>
			<path style="fill-rule:evenodd;clip-rule:evenodd;fill:#D25B5D;" d="M85.695,168.697c0.534,0.978,1.275,1.831,2.272,2.367
				c0.934,0.501,1.438,1.306,1.717,2.306c0.337,1.202,0.351,2.618,0.351,3.861c0,0.489,0.396,0.885,0.884,0.885h1.516
				c0.155,0,0.308-0.027,0.455-0.072c0.701-0.22,1.294-0.916,1.644-1.533c0.48-0.847,0.715-1.837,0.717-2.808
				c0.001-0.651-0.103-1.295-0.297-1.916c-0.135-0.43-0.508-1.688-0.335-2.118c0.044-0.031,0.207-0.036,0.26-0.036h3.8
				c0.433,0,0.872-0.047,1.291-0.16c0.587-0.158,1.123-0.447,1.527-0.909c0.494-0.561,0.692-1.259,0.692-1.998
				c0-0.382-0.053-0.767-0.137-1.141c0.548-1.412,0.658-3.167-0.455-4.323c0.069-1.167-0.22-2.441-1.21-3.152
				c-0.54-1.646-1.862-2.712-3.653-2.712h-6.967c-1.19,0-2.38,0.631-3.347,1.361c-0.091-0.33-0.268-0.634-0.521-0.888l-0.03-0.028
				c-0.367-0.345-0.848-0.539-1.352-0.539h-3.166c-0.524,0-1.023,0.208-1.394,0.578c-0.37,0.371-0.577,0.87-0.577,1.393v10.003
				c0,0.523,0.207,1.022,0.59,1.405L80,168.551c0.366,0.346,0.848,0.54,1.351,0.54h3.166
				C84.945,169.09,85.357,168.95,85.695,168.697L85.695,168.697z M86.489,158.873c0.798-0.806,2.138-1.862,3.278-1.862h6.967
				c1.013,0,1.837,0.691,2.03,1.69c0.055,0.266,0.228,0.491,0.471,0.611c0.643,0.322,0.663,1.379,0.57,1.97
				c-0.074,0.34,0.061,0.688,0.342,0.895c0.84,0.619,0.556,1.963,0.197,2.762c-0.109,0.199-0.134,0.426-0.076,0.645
				c0.086,0.316,0.15,0.655,0.15,0.983c0,0.29-0.052,0.608-0.249,0.834c-0.167,0.19-0.419,0.3-0.658,0.364
				c-0.268,0.073-0.555,0.098-0.832,0.098h-3.8c-0.85,0-1.536,0.28-1.881,1.113c-0.398,0.959-0.027,2.399,0.267,3.339
				c0.141,0.451,0.216,0.918,0.217,1.389c0.001,0.667-0.155,1.355-0.486,1.936c-0.102,0.182-0.389,0.614-0.608,0.706h-0.591
				c-0.022-1.152-0.101-2.348-0.411-3.453c-0.415-1.479-1.207-2.645-2.582-3.384c-1.311-0.706-2.093-2.421-2.317-3.845V158.873
				L86.489,158.873z M84.518,167.319h-3.166c-0.051,0-0.094-0.014-0.121-0.038l-0.021-0.022c-0.037-0.037-0.059-0.087-0.059-0.14
				v-10.003c0-0.053,0.022-0.103,0.059-0.141c0.038-0.037,0.088-0.059,0.142-0.059h3.166c0.051,0,0.093,0.013,0.12,0.036
				l0.021,0.023c0.037,0.038,0.06,0.089,0.06,0.141v10.003c0,0.054-0.023,0.104-0.061,0.141
				C84.621,167.297,84.571,167.319,84.518,167.319z"/>
		</g>
		<g>
			<polygon style="fill-rule:evenodd;clip-rule:evenodd;fill:#141939;" points="115.619,225.274 94.166,405.534 98.679,405.534 
				123.598,225.274 120.806,222.833 			"/>
			<polygon style="fill-rule:evenodd;clip-rule:evenodd;fill:#141939;" points="199.646,225.274 221.1,405.534 216.585,405.534 
				191.667,225.274 194.459,222.833 			"/>
			<path style="fill-rule:evenodd;clip-rule:evenodd;fill:#C73048;" d="M278.104,299.023c-2.87,0-5.199-2.328-5.199-5.198
				c0-2.872,2.329-5.198,5.199-5.198c10.181,0,38.662,0.675,43.18-2.326c3.349-2.226,5.747-7.092,5.747-17.237v-73.179
				c0-2.872,2.327-5.2,5.198-5.2h49.246v86.588l-12.728,14.856h-15.251v-2.238c-1.504,2.117-3.272,3.768-5.218,5.061
				c-5.997,3.983-12.893,4.071-18.992,4.071H278.104z"/>
			<path style="fill-rule:evenodd;clip-rule:evenodd;fill:#141939;" d="M311.95,293.318h23.757c3.137,0,5.704,2.567,5.704,5.705l0,0
				c0,3.137-2.567,5.704-5.704,5.704H311.95c-3.139,0-5.705-2.567-5.705-5.704l0,0C306.245,295.885,308.812,293.318,311.95,293.318z
				"/>
			<path style="fill-rule:evenodd;clip-rule:evenodd;fill:#141939;" d="M323.828,286.3L323.828,286.3
				c4.854,0,8.824,3.97,8.824,8.823v116.367c0,4.855-3.97,8.825-8.824,8.825l0,0c-4.854,0-8.824-3.97-8.824-8.825V295.124
				C315.004,290.27,318.974,286.3,323.828,286.3z"/>
			<path style="fill-rule:evenodd;clip-rule:evenodd;fill:#141939;" d="M293.775,399.83h60.105c3.139,0,5.705,2.566,5.705,5.704l0,0
				c0,3.139-2.566,5.705-5.705,5.705h-60.105c-3.139,0-5.704-2.566-5.704-5.705l0,0C288.071,402.396,290.637,399.83,293.775,399.83z
				"/>
			<path style="fill-rule:evenodd;clip-rule:evenodd;fill:#D1576B;" d="M316.686,299.023c-2.871,0-5.199-2.328-5.199-5.198
				c0-2.872,2.328-5.198,5.199-5.198h40.578c4.63,0,9.842-0.052,13.266-2.326c3.349-2.226,5.746-7.092,5.746-17.237v-73.179
				c0-2.872,2.328-5.2,5.2-5.2c2.87,0,5.199,2.328,5.199,5.2v73.179c0,14.341-4.345,21.854-10.418,25.889
				c-5.998,3.983-12.894,4.071-18.993,4.071H316.686z"/>
			<path style="fill-rule:evenodd;clip-rule:evenodd;fill:#313E7E;" d="M295.396,253.238c-32.683,7.423-46.342,3.805-50.845,40.364
				c-3.423,27.795-10.302,91.294-10.302,91.294s4.256,7.395,4.808,7.503c0.551,0.112,13.489-3.416,13.489-3.416
				s12.764-74.917,16.076-84.193c3.315-9.279,2.447-16.146,12.593-16.146c10.145,0,35.201,0,35.201,0l7.896-26.849l-3.18-3.094
				c3.451,0.167,6.143,0.195,6.601-0.086c1.438-0.884,24.079-9.168,24.079-9.168s-16.236-4.859-17.672-5.413
				c-1.435-0.551-24.796-2.485-24.796-2.485s-0.055,6.407-1.215,7.787c-1.159,1.38-3.641,1.949-3.641,1.949h-0.002L295.396,253.238z
				"/>
			<path style="fill-rule:evenodd;clip-rule:evenodd;fill:#2B3268;" d="M295.396,253.238l-0.331,0.074
				c1.777,2.401,3.765,5.386,3.936,6.927c0.221,1.999-3.556,18.734-5.794,28.405h23.209l2.634-8.957
				c0.061-14.146-0.228-33.92-0.228-33.92l-9.955,1.471c-0.174,0.928-0.412,1.712-0.738,2.099c-1.159,1.38-3.641,1.949-3.641,1.949
				h-0.002L295.396,253.238z"/>
			<path style="fill-rule:evenodd;clip-rule:evenodd;fill:#EBB952;" d="M303.732,176.265c0,0,19.861,0,29.933,0
				c10.07,0,24.477,7.31,30.074,15.23c5.595,7.919,7.692,12.972,3.916,20.498c-3.776,7.525-3.496,7.83-3.496,7.83l-2.517,6.092
				c0,0,3.496,10.813,4.475,13.555c0.978,2.742,7.134,12.641,7.482,14.087c0.351,1.445-0.169,3.412-0.169,3.412
				s-4.252-2.857-22.881-4.478c-18.628-1.622-38.825,3.82-38.825,3.82s-8.645-3.531-14.438-3.219c0,0,0.397-3.575,3.194-11.934
				c-0.066-0.008-3.772-6.247-7.048-10.777c-3.782-5.232-7.728-11.371-8.654-12.733l-52.314-1.524l-5.945-4.133
				c0,0-6.296-8.051,3.216-18.103c0,0,2.937-2.742,10.63-2.894c9.777-8.685,12.339-14.164,26.298-14.164
				C279.951,176.832,303.732,176.265,303.732,176.265z"/>
			<path style="fill-rule:evenodd;clip-rule:evenodd;fill:#D38230;" d="M364.135,219.883l-2.493,6.031
				c0,0,3.496,10.813,4.475,13.555c0.978,2.742,7.135,12.641,7.482,14.087c0.351,1.445-0.169,3.412-0.169,3.412
				s-1.833-1.232-8.364-2.537c-0.427-0.892-0.834-1.861-1.218-2.924c-6.928-19.17-10.633-21.126-16.11-21.126h-54.305l-5.518-8.117
				c6.283-1.325,21.722-4.645,25.672-6.09c4.992-1.826,39.467,0,39.467,0L364.135,219.883z"/>
			<path style="fill-rule:evenodd;clip-rule:evenodd;fill:#CF8577;" d="M313.936,194.572l0.908,1.028l4.232,4.493l-4.686,4.379
				h-8.673c0,0-1.68-7.236-1.538-7.77C304.318,196.171,307.675,190.688,313.936,194.572z"/>
			
				<path style="fill-rule:evenodd;clip-rule:evenodd;fill:none;stroke:#2B3268;stroke-width:1.4173;stroke-linecap:round;stroke-linejoin:round;stroke-miterlimit:2.6131;" d="
				M311.275,273.146c0,0-25.486,1.729-32.566,2.673c-7.079,0.944-12.584,6.451-14.472,14.633
				c-1.889,8.18-15.891,98.637-15.891,98.637"/>
			<path style="fill-rule:evenodd;clip-rule:evenodd;fill:#242854;" d="M307.711,179.761l4.758,1.068l2.375,14.77l-0.278,2.59
				c0,0-0.442-3.021-2.168-3.503c-1.728-0.483-0.922,4.326-0.699,5.483l-6.713,2.132L307.711,179.761z"/>
			<path style="fill-rule:evenodd;clip-rule:evenodd;fill:#141939;" d="M268.058,207.698c-6.931-0.085-8.089-14.023-0.207-14.227
				c0,0-2.171-15.917-1.052-21.096c1.118-5.179,13.359-9.192,18.341-8.84c10.587,0.747,13.304,1.706,14.67,5.794
				c0,0,3.918-0.747,5.944-0.38c2.027,0.367,6.715,6.855,6.715,11.881c0,5.025-1.959,19.343-6.296,24.064
				C301.839,209.614,268.058,207.698,268.058,207.698z"/>
			<path style="fill-rule:evenodd;clip-rule:evenodd;fill:#313E7E;" d="M372.429,256.442c-0.053-0.032-3.681-2.212-18.523-3.704
				c-7.393-0.535-18.355-2.308-27.78-1.758c-20.165,1.176-27.902,11.982-26.362,30.448c2.661,31.903,8.384,77.913,14.4,109.93
				c0.063,0.336-0.148,1.027,0.189,1.004l16.722-1.185c0,0-2.635-83.021-2.855-88.874c-0.221-5.854,2.871-13.658,9.166-13.658
				c4.311,0,13.101-0.025,18.216-0.042C371.436,288.555,377.331,271.291,372.429,256.442z"/>
			<path style="fill-rule:evenodd;clip-rule:evenodd;fill:#2B3268;" d="M372.429,256.442c-0.053-0.032-3.681-2.212-18.523-3.704
				c-3.098-0.224-6.826-0.665-10.805-1.063l30.921,17.431C374.333,264.984,373.808,260.619,372.429,256.442z"/>
			<path style="fill-rule:evenodd;clip-rule:evenodd;fill:#E7B3A2;" d="M229.001,211.992c-5.746-4.816-2.391-21.169,11.539-16.718
				c9.9,3.165,26.687,9.558,28.762,10.037c2.827,0.653,9.167,0,10.775,0c1.609,0,5.705,1.758,5.705,6.681h-56.1H229.001z"/>
			<path style="fill-rule:evenodd;clip-rule:evenodd;fill:#E7B3A2;" d="M362.602,211.992h1.152c0,0,4.185-2.216,3.741-7.857
				c-0.445-5.639-6.659-11.233-11.346-11.8c-4.686-0.566-55.575,11.843-60.343,12.539c-4.768,0.697-15.457,0-18.169,0
				c-2.712,0-6.494,1.615-7.404,2.681c0,0-4.826,1.067-6.225,1.143c-1.397,0.076,0.001,3.085,1.05,3.294H362.602z"/>
			
				<path style="fill-rule:evenodd;clip-rule:evenodd;fill:none;stroke:#2B3268;stroke-width:1.4173;stroke-linecap:round;stroke-linejoin:round;stroke-miterlimit:2.6131;" d="
				M329.333,336.558c0,0-4.214-32.419-5.474-46.578c-1.258-14.159,1.573-20.138,8.024-20.138c6.449,0,24.07,0,24.07,0
				s8.593,1.021,7.094-15.901"/>
			<path style="fill-rule:evenodd;clip-rule:evenodd;fill:#D1576B;" d="M240.155,386.184c0,0-1.269-2.852-4.361-1.995
				c-3.091,0.855-21.428,10.948-24.293,12.193c-2.866,1.246-5.88,5.993-3.619,8.718h43.591c2.576-1.546,5.058-6.892,2.399-16.189
				C251.213,379.612,251.864,389.381,240.155,386.184z"/>
			<path style="fill-rule:evenodd;clip-rule:evenodd;fill:#C73048;" d="M240.155,386.184c0,0-1.269-2.851-4.361-1.995
				c-1.925,0.533-9.756,4.646-16.087,7.975c1.855,1.389,5.796,2.605,6.698,2.421C227.538,394.353,240.155,386.184,240.155,386.184z"
				/>
			<path style="fill-rule:evenodd;clip-rule:evenodd;fill:#FDFBFC;" d="M254.3,405.077h-47.124c-0.705,0-1.279-0.573-1.279-1.277
				v-2.373c0-0.704,0.575-1.279,1.279-1.279H254.3c0.704,0,1.277,0.575,1.277,1.279v2.373
				C255.577,404.503,255.004,405.077,254.3,405.077z"/>
			<path style="fill-rule:evenodd;clip-rule:evenodd;fill:#D1576B;" d="M316.15,387.019c0,0,5.209-6.46,11.574-1.322
				c0,0,3.472,1.401,4.773,4.671c1.303,3.268,3.763,4.747,4.196,8.327c0.434,3.581-0.578,6.383-5.136,6.383
				c-4.557,0-4.123,0-7.378,0c-3.257,0-8.103,0.544-9.767-3.814c-1.664-4.357,0-8.327-0.577-10.585
				C313.257,388.421,316.15,387.019,316.15,387.019z"/>
			<path style="fill-rule:evenodd;clip-rule:evenodd;fill:#C73048;" d="M316.15,387.021c0,0,5.209-6.462,11.574-1.324
				c0,0,0.669,0.27,1.529,0.848c0.371,2.831,0.674,5.85,0.397,6.619c-0.552,1.54-8.775,1.211-9.935,0.66
				c-0.865-0.41-2.838-4.592-3.781-6.687C316.068,387.06,316.15,387.021,316.15,387.021z"/>
			<path style="fill-rule:evenodd;clip-rule:evenodd;fill:#FDFBFC;" d="M336.206,405.077h-21.573c-0.706,0-1.283-0.573-1.283-1.277
				v-2.373c0-0.704,0.577-1.279,1.283-1.279h21.573c0.707,0,1.282,0.575,1.282,1.279v2.373
				C337.488,404.503,336.913,405.077,336.206,405.077z"/>
			<path style="fill-rule:evenodd;clip-rule:evenodd;fill:#141939;" d="M282.283,216.175H111.817c-2.502,0-4.549,2.047-4.549,4.55
				l0,0c0,2.501,2.047,4.549,4.549,4.549h170.466c2.502,0,4.549-2.047,4.549-4.549l0,0
				C286.832,218.222,284.785,216.175,282.283,216.175z"/>
			<path style="fill-rule:evenodd;clip-rule:evenodd;fill:#5966C1;" d="M379.467,216.175H272.113c-2.502,0-4.549,2.047-4.549,4.55
				l0,0c0,2.501,2.047,4.549,4.549,4.549h107.354c2.502,0,4.548-2.047,4.548-4.549l0,0
				C384.015,218.222,381.969,216.175,379.467,216.175z"/>
			<path style="fill-rule:evenodd;clip-rule:evenodd;fill:#ECC480;" d="M293.358,211.628H104.144c-2.503,0-4.55,2.046-4.55,4.548
				l0,0c0,2.503,2.047,4.55,4.55,4.55h189.214c2.503,0,4.549-2.047,4.549-4.55l0,0C297.907,213.673,295.861,211.628,293.358,211.628
				z"/>
			
				<path style="fill-rule:evenodd;clip-rule:evenodd;fill:none;stroke:#CF8577;stroke-width:1.4173;stroke-linecap:round;stroke-linejoin:round;stroke-miterlimit:2.6131;" d="
				M263.613,208.849l8.816,0.258 M270.233,207.555l6.679-0.65 M277.638,204.874c-2.712,0-6.496,1.615-7.404,2.681
				c0,0-4.826,1.066-6.225,1.143c-1.397,0.076,0.001,3.085,1.05,3.294"/>
			<path style="fill-rule:evenodd;clip-rule:evenodd;fill:#242854;" d="M267.258,197.872c16.698,3.661,32.343-8.492,41.47-26.382
				c-1.108-1.429-2.224-2.406-2.974-2.541c-0.497-0.09-1.108-0.113-1.745-0.096c-8.569,12.637-22.27,20.412-35.661,13.696
				c1.358,5.558,3.114,11.079,3.114,11.079C269.014,194.122,267.696,195.819,267.258,197.872z"/>
			<path style="fill-rule:evenodd;clip-rule:evenodd;fill:#F7E58E;" d="M386.472,211.628H257.803c-2.501,0-4.547,2.046-4.547,4.548
				l0,0c0,2.503,2.046,4.55,4.547,4.55h128.669c2.503,0,4.549-2.047,4.549-4.55l0,0
				C391.021,213.673,388.975,211.628,386.472,211.628z"/>
			<g>
				<path style="fill-rule:evenodd;clip-rule:evenodd;fill:#D1576B;" d="M214.267,161.949h66.581c1.843,0,3.506,1.506,3.696,3.349
					l4.108,39.747c0.19,1.842-1.161,3.35-3.002,3.35h-66.582c-1.842,0-3.504-1.507-3.695-3.35l-4.109-39.747
					C211.074,163.455,212.426,161.949,214.267,161.949z"/>
				<path style="fill-rule:evenodd;clip-rule:evenodd;fill:#C73048;" d="M215.038,208.047h77.233c0.985,0,1.788,0.806,1.788,1.79
					l0,0c0,0.984-0.803,1.789-1.788,1.789h-77.233c-0.985,0-1.787-0.805-1.787-1.789l0,0
					C213.251,208.853,214.053,208.047,215.038,208.047z"/>
				<path style="fill-rule:evenodd;clip-rule:evenodd;fill:#D1576B;" d="M288.289,208.047h10.306c0.985,0,1.789,0.806,1.789,1.79
					l0,0c0,0.984-0.804,1.789-1.789,1.789h-10.306c-0.984,0-1.788-0.805-1.788-1.789l0,0
					C286.501,208.853,287.305,208.047,288.289,208.047z"/>
				<path style="fill-rule:evenodd;clip-rule:evenodd;fill:#DFDCEC;" d="M249.3,181.633c-1.077,0-2.074,0.243-2.945,0.678
					c0.589,0.576,0.989,1.347,1.071,2.195c0.172,1.785-1.136,3.232-2.922,3.232c-0.546,0-1.075-0.137-1.548-0.376
					c-0.038,0.417-0.037,0.847,0.005,1.287c0.373,3.873,3.816,7.014,7.69,7.014c3.875,0,6.712-3.141,6.339-7.014
					C256.618,184.774,253.176,181.633,249.3,181.633z"/>
			</g>
			<path style="fill-rule:evenodd;clip-rule:evenodd;fill:#141939;" d="M235.482,370.886h19.829c1.825,0,3.32,1.493,3.32,3.32l0,0
				c0,1.825-1.495,3.32-3.32,3.32h-19.829c-1.826,0-3.319-1.495-3.319-3.32l0,0C232.163,372.379,233.656,370.886,235.482,370.886z"
				/>
			<path style="fill-rule:evenodd;clip-rule:evenodd;fill:#EBB952;" d="M303.941,211.626c0,0,0.791-5.104-0.261-8.427
				c0,0,0.049-0.471,0.399-0.681c0.351-0.211,49.872-11.835,49.872-11.835s7.2,1.008,9.632,3.16c2.432,2.151,4.585,7.294,4.865,8.79
				c0.28,1.497-1.871,8.992-1.871,8.992H303.941z"/>
			
				<line style="fill-rule:evenodd;clip-rule:evenodd;fill:none;stroke:#D38230;stroke-width:1.4173;stroke-linecap:round;stroke-linejoin:round;stroke-miterlimit:2.6131;" x1="316.729" y1="199.46" x2="347.122" y2="191.973"/>
			
				<path style="fill-rule:evenodd;clip-rule:evenodd;fill:none;stroke:#242854;stroke-width:2.126;stroke-linecap:round;stroke-linejoin:round;stroke-miterlimit:2.6131;" d="
				M149.028,313.392c1.762-9.588,11.956-16.913,15.892-18.465 M171.098,293.848c2.618,0.065,5.277,0.756,7.809,2.048
				 M184.032,299.54c2.142,2.018,4.059,4.559,5.599,7.607 M191.918,313.014c0.078,0.272,0.156,0.543,0.229,0.818
				c0.833,3.137,1.644,6.526,2.499,10.038 M196.167,329.989c1.01,3.947,2.113,7.96,3.392,11.873 M201.681,347.799
				c1.134,2.89,2.394,5.673,3.819,8.277 M208.857,361.409c2.327,3.194,5.018,5.947,8.17,8.065 M222.626,372.345
				c3.068,1.139,6.492,1.769,10.33,1.769"/>
			
				<path style="fill-rule:evenodd;clip-rule:evenodd;fill:none;stroke:#242854;stroke-width:2.126;stroke-linecap:round;stroke-linejoin:round;stroke-miterlimit:2.6131;" d="
				M167.954,290.923c1.742,0,3.152,1.409,3.152,3.15c0,1.741-1.41,3.152-3.152,3.152c-1.74,0-3.151-1.411-3.151-3.152
				C164.802,292.332,166.213,290.923,167.954,290.923L167.954,290.923z M219.739,367.928c1.741,0,3.152,1.411,3.152,3.151
				c0,1.741-1.411,3.152-3.152,3.152c-1.74,0-3.151-1.411-3.151-3.152C216.587,369.339,217.999,367.928,219.739,367.928
				L219.739,367.928z M207.092,355.645c1.74,0,3.151,1.41,3.151,3.151c0,1.74-1.411,3.153-3.151,3.153
				c-1.741,0-3.152-1.413-3.152-3.153C203.94,357.055,205.351,355.645,207.092,355.645L207.092,355.645z M200.575,341.695
				c1.741,0,3.152,1.412,3.152,3.153c0,1.739-1.411,3.15-3.152,3.15c-1.74,0-3.151-1.411-3.151-3.15
				C197.424,343.107,198.835,341.695,200.575,341.695L200.575,341.695z M195.398,323.782c1.741,0,3.151,1.411,3.151,3.15
				c0,1.741-1.41,3.153-3.151,3.153s-3.152-1.412-3.152-3.153C192.246,325.193,193.657,323.782,195.398,323.782L195.398,323.782z
				 M190.912,306.876c1.741,0,3.151,1.411,3.151,3.152c0,1.74-1.41,3.15-3.151,3.15c-1.74,0-3.151-1.41-3.151-3.15
				C187.761,308.288,189.172,306.876,190.912,306.876L190.912,306.876z M181.601,294.379c1.741,0,3.151,1.411,3.151,3.152
				c0,1.74-1.41,3.152-3.151,3.152s-3.151-1.412-3.151-3.152C178.449,295.791,179.859,294.379,181.601,294.379z"/>
			<g>
				<path style="fill-rule:evenodd;clip-rule:evenodd;fill:#141939;" d="M145.279,320.73c21.707,12.532,29.145,40.29,16.612,61.998
					c-12.533,21.708-40.29,29.146-61.999,16.612c-21.708-12.532-29.145-40.29-16.612-61.998
					C95.813,315.634,123.57,308.197,145.279,320.73z"/>
				<path style="fill-rule:evenodd;clip-rule:evenodd;fill:#141939;" d="M145.646,311.113l7.779,4.49
					c1.087,0.629,1.463,2.032,0.835,3.121l-5.202,9.007c-0.627,1.09-2.032,1.466-3.12,0.838l-7.778-4.493
					c-1.089-0.627-1.465-2.032-0.837-3.119l5.201-9.009C143.153,310.861,144.557,310.485,145.646,311.113z"/>
				<path style="fill-rule:evenodd;clip-rule:evenodd;fill:#242854;" d="M134.921,325.327c16.624,9.598,22.319,30.856,12.722,47.48
					c-9.598,16.624-30.855,22.318-47.479,12.721c-16.625-9.597-22.32-30.855-12.723-47.479
					C97.04,321.425,118.297,315.73,134.921,325.327z"/>
			</g>
			<polygon style="fill-rule:evenodd;clip-rule:evenodd;fill:#5966C1;" points="287.607,225.274 266.154,405.534 270.669,405.534 
				295.587,225.274 292.795,222.833 			"/>
			<polygon style="fill-rule:evenodd;clip-rule:evenodd;fill:#5966C1;" points="371.635,225.274 393.089,405.534 388.574,405.534 
				363.656,225.274 366.448,222.833 			"/>
			<g>
				<path style="fill-rule:evenodd;clip-rule:evenodd;fill:#C73048;" d="M197.465,192.885L197.465,192.885v6.447h-29.678v-6.447l0,0
					c0-1.573,1.287-2.86,2.859-2.86h23.96C196.179,190.025,197.465,191.311,197.465,192.885z"/>
				<path style="fill-rule:evenodd;clip-rule:evenodd;fill:#D1576B;" d="M166.918,211.626h27.993c1.405,0,2.554-1.149,2.554-2.554
					v-10.159v-0.613v-5.416c0,1.574-1.286,2.861-2.859,2.861h-2.249h-25.438c-1.405,0-2.555,1.149-2.555,2.555v10.772
					C164.363,210.477,165.513,211.626,166.918,211.626z"/>
				<path style="fill-rule:evenodd;clip-rule:evenodd;fill:#FFFFFF;" d="M163.413,200.915h5.286c1.574,0,2.86,1.288,2.86,2.862l0,0
					c0,1.574-1.286,2.861-2.86,2.861h-5.286c-0.46,0-0.837-0.376-0.837-0.837v-4.048
					C162.575,201.292,162.952,200.915,163.413,200.915z"/>
				<g>
					
						<line style="fill-rule:evenodd;clip-rule:evenodd;fill:none;stroke:#FFFFFF;stroke-width:4.252;stroke-linecap:round;stroke-linejoin:round;stroke-miterlimit:2.6131;" x1="183.176" y1="183.096" x2="183.305" y2="176.608"/>
					
						<line style="fill-rule:evenodd;clip-rule:evenodd;fill:none;stroke:#FFFFFF;stroke-width:4.252;stroke-linecap:round;stroke-linejoin:round;stroke-miterlimit:2.6131;" x1="190.82" y1="185.609" x2="192.363" y2="183.056"/>
					
						<line style="fill-rule:evenodd;clip-rule:evenodd;fill:none;stroke:#FFFFFF;stroke-width:4.252;stroke-linecap:round;stroke-linejoin:round;stroke-miterlimit:2.6131;" x1="175.505" y1="185.784" x2="174.064" y2="183.17"/>
				</g>
			</g>
		</g>
		<g>
			<g>
				<path style="fill-rule:evenodd;clip-rule:evenodd;fill:#D38230;" d="M148.694,132.862c2.459,1.42,0.347,9.684-4.72,18.46
					c-5.066,8.774-11.167,14.736-13.626,13.316l-3.129-1.806l2.648-4.587c0.846-3.351,2.649-7.644,5.203-12.066
					c2.553-4.423,5.368-8.13,7.848-10.538l2.648-4.586L148.694,132.862z"/>
				<path style="fill-rule:evenodd;clip-rule:evenodd;fill:#CE5E33;" d="M145.188,149.126c-0.383,0.726-0.788,1.459-1.213,2.197
					l-0.13,0.221l-8.904-5.14l0.129-0.223c0.425-0.738,0.857-1.454,1.295-2.149L145.188,149.126L145.188,149.126z M142.841,153.21
					l-8.843-5.104c-0.683,1.278-1.297,2.536-1.84,3.752l8.354,4.823C141.294,155.603,142.074,154.442,142.841,153.21L142.841,153.21
					z M138.627,159.124c-1.003,1.214-1.987,2.27-2.917,3.13l-6.118-3.532l0.274-0.476c0.275-1.087,0.651-2.275,1.12-3.534
					L138.627,159.124z"/>
				<g>
					<path style="fill-rule:evenodd;clip-rule:evenodd;fill:#EBB952;" d="M145.565,131.056c2.459,1.42,0.345,9.684-4.721,18.459
						c-5.066,8.774-11.167,14.737-13.626,13.317c-2.459-1.42-0.346-9.684,4.72-18.46
						C137.005,135.598,143.106,129.637,145.565,131.056z"/>
					<path style="fill-rule:evenodd;clip-rule:evenodd;fill:#EBB952;" d="M144.052,133.676c2.054,1.186,0.289,8.088-3.941,15.415
						c-4.231,7.328-9.326,12.307-11.379,11.122c-2.054-1.187-0.29-8.088,3.941-15.417
						C136.904,137.469,141.998,132.489,144.052,133.676z"/>
					<path style="fill-rule:evenodd;clip-rule:evenodd;fill:#FFFFFF;" d="M131.974,154.196c-0.278-0.229-0.471-0.635-0.403-1.363
						c0.054-0.587,0.27-1.336,0.806-2.264c0.222-0.384,0.456-0.713,0.691-0.943c0.234-0.23,0.398-0.288,0.505-0.226
						c0.271,0.157-0.183,1.216-0.588,2.047c-0.044,0.091-0.089,0.182-0.133,0.273c-0.152,0.309-0.246,0.573-0.271,0.786
						c-0.03,0.237,0.028,0.356,0.123,0.411l0.007,0.005l2.928-5.073c-0.018-0.671,0.023-1.559,0.308-2.57
						c0.238-0.843,0.643-1.764,1.216-2.757c0.649-1.124,1.316-2.036,1.994-2.686c0.684-0.654,1.177-0.84,1.534-0.739l0.79-1.367
						c0.054-0.094,0.12-0.159,0.147-0.144l0.288,0.167c0.026,0.015,0.003,0.104-0.051,0.199l-0.776,1.346
						c0.246,0.228,0.414,0.615,0.343,1.299c-0.06,0.567-0.282,1.28-0.788,2.157c-0.213,0.369-0.438,0.687-0.663,0.901
						c-0.228,0.22-0.385,0.265-0.489,0.205c-0.09-0.052-0.131-0.183-0.062-0.452c0.083-0.327,0.419-1.024,0.612-1.417
						c0.165-0.335,0.372-0.785,0.421-1.043c0.041-0.219-0.018-0.342-0.09-0.414l-2.508,4.344c0.017,0.717-0.035,1.652-0.344,2.738
						c-0.264,0.925-0.714,1.937-1.34,3.021c-0.676,1.17-1.374,2.132-2.084,2.819c-0.731,0.708-1.285,0.934-1.706,0.904l-1.051,1.819
						c-0.055,0.094-0.121,0.159-0.148,0.143l-0.287-0.166c-0.027-0.015-0.003-0.104,0.051-0.198L131.974,154.196L131.974,154.196z
						 M137.862,143.996l2.095-3.627c-0.156-0.005-0.359,0.108-0.628,0.372c-0.296,0.292-0.58,0.682-0.859,1.166
						c-0.231,0.4-0.387,0.762-0.48,1.098C137.887,143.381,137.862,143.722,137.862,143.996L137.862,143.996z M133.148,153.046
						c0.185-0.018,0.417-0.149,0.718-0.46c0.34-0.351,0.671-0.837,0.983-1.377c0.287-0.497,0.503-0.964,0.634-1.398
						c0.132-0.437,0.167-0.799,0.161-1.087L133.148,153.046z"/>
					<path style="fill-rule:evenodd;clip-rule:evenodd;fill:#D38230;" d="M143.305,134.971c1.853,1.07,0.261,7.297-3.557,13.91
						c-3.817,6.612-8.414,11.105-10.268,10.035c-1.853-1.069-0.261-7.297,3.557-13.91
						C136.854,138.395,141.451,133.902,143.305,134.971L143.305,134.971z M140.111,149.091c4.23-7.328,5.995-14.23,3.941-15.415
						c-2.054-1.186-7.148,3.794-11.379,11.121c-4.231,7.329-5.995,14.23-3.941,15.417
						C130.786,161.398,135.88,156.419,140.111,149.091z"/>
				</g>
			</g>
			<g>
				
					<line style="fill-rule:evenodd;clip-rule:evenodd;fill:none;stroke:#FFFFFF;stroke-width:2.126;stroke-linecap:round;stroke-linejoin:round;stroke-miterlimit:2.6131;" x1="146.574" y1="126.876" x2="146.574" y2="118.955"/>
				
					<line style="fill-rule:evenodd;clip-rule:evenodd;fill:none;stroke:#FFFFFF;stroke-width:2.126;stroke-linecap:round;stroke-linejoin:round;stroke-miterlimit:2.6131;" x1="146.574" y1="114.94" x2="146.574" y2="113.64"/>
			</g>
			<g>
				
					<line style="fill-rule:evenodd;clip-rule:evenodd;fill:none;stroke:#FFFFFF;stroke-width:2.126;stroke-linecap:round;stroke-linejoin:round;stroke-miterlimit:2.6131;" x1="137.499" y1="132.039" x2="137.499" y2="124.119"/>
				
					<line style="fill-rule:evenodd;clip-rule:evenodd;fill:none;stroke:#FFFFFF;stroke-width:2.126;stroke-linecap:round;stroke-linejoin:round;stroke-miterlimit:2.6131;" x1="137.5" y1="120.104" x2="137.5" y2="118.804"/>
			</g>
			<g>
				
					<line style="fill-rule:evenodd;clip-rule:evenodd;fill:none;stroke:#FFFFFF;stroke-width:2.126;stroke-linecap:round;stroke-linejoin:round;stroke-miterlimit:2.6131;" x1="130.178" y1="128.129" x2="130.178" y2="136.05"/>
				
					<line style="fill-rule:evenodd;clip-rule:evenodd;fill:none;stroke:#FFFFFF;stroke-width:2.126;stroke-linecap:round;stroke-linejoin:round;stroke-miterlimit:2.6131;" x1="130.179" y1="140.065" x2="130.179" y2="141.365"/>
			</g>
		</g>
		<g>
			<g>
				<path style="fill-rule:evenodd;clip-rule:evenodd;fill:#D38230;" d="M316.964,102.67c-7.497,1.849-11.588,11.413-9.135,21.363
					c2.453,9.95,10.521,16.517,18.017,14.669l3.617-0.892l-0.16-0.648c5.225-3.516,7.722-11.536,5.679-19.823
					c-2.043-8.288-7.982-14.229-14.242-14.914l-0.158-0.647L316.964,102.67z"/>
				<path style="fill-rule:evenodd;clip-rule:evenodd;fill:#D06931;" d="M307.349,121.539c0.116,0.825,0.273,1.659,0.48,2.495
					c0.021,0.085,0.043,0.168,0.065,0.252l27.147-6.693c-0.018-0.084-0.039-0.169-0.06-0.253c-0.207-0.836-0.453-1.648-0.735-2.433
					L307.349,121.539L307.349,121.539z M308.461,126.172l26.957-6.646c0.223,1.454,0.307,2.889,0.265,4.278l-25.469,6.279
					C309.529,128.872,308.938,127.564,308.461,126.172L308.461,126.172z M312.041,132.818c1.066,1.355,2.263,2.525,3.545,3.469
					l18.223-4.492c0.695-1.434,1.213-3.023,1.528-4.721L312.041,132.818z"/>
				<g>
					<path style="fill-rule:evenodd;clip-rule:evenodd;fill:#EBB952;" d="M320.582,101.779c-7.499,1.849-11.588,11.412-9.137,21.363
						c2.454,9.949,10.52,16.517,18.018,14.669c7.497-1.848,11.588-11.414,9.135-21.363
						C336.146,106.499,328.079,99.93,320.582,101.779z"/>
					<path style="fill-rule:evenodd;clip-rule:evenodd;fill:#EBB952;" d="M321.313,104.748c-6.263,1.544-9.678,9.532-7.629,17.841
						c2.048,8.31,8.786,13.795,15.048,12.251c6.261-1.543,9.677-9.531,7.629-17.841C334.312,108.69,327.575,103.205,321.313,104.748
						z"/>
					<path style="fill-rule:evenodd;clip-rule:evenodd;fill:#FFFFFF;" d="M326.548,128.263c-0.95,0.172-1.987,0.162-2.958-0.292
						c-0.779-0.365-1.456-0.986-1.715-2.04c-0.108-0.435-0.107-0.854,0.05-1.221c0.157-0.369,0.423-0.573,0.752-0.653
						c0.827-0.205,1.461,0.83,1.855,1.696c0.043,0.094,0.086,0.188,0.128,0.283c0.147,0.322,0.348,0.56,0.614,0.7
						c0.297,0.156,0.606,0.158,0.896,0.086l0.022-0.005l-1.417-5.752c-1.065-0.333-2.335-0.842-3.266-1.674
						c-0.775-0.692-1.308-1.604-1.584-2.73c-0.315-1.273-0.263-2.457,0.212-3.513c0.479-1.065,1.264-1.682,2.191-2.005l-0.383-1.552
						c-0.026-0.106,0.018-0.21,0.098-0.229l0.877-0.217c0.082-0.02,0.168,0.051,0.194,0.158l0.377,1.526
						c0.881-0.141,1.839-0.114,2.73,0.32c0.739,0.361,1.35,0.97,1.595,1.963c0.103,0.418,0.103,0.823-0.055,1.173
						c-0.158,0.355-0.428,0.544-0.746,0.623c-0.275,0.068-0.563,0.043-0.825-0.172c-0.32-0.26-0.658-0.98-0.839-1.39
						c-0.156-0.35-0.395-0.804-0.687-0.991c-0.246-0.158-0.562-0.161-0.828-0.123l1.214,4.926c1.136,0.357,2.454,0.904,3.445,1.8
						c0.845,0.764,1.416,1.77,1.72,2.999c0.326,1.328,0.287,2.569-0.199,3.679c-0.502,1.143-1.352,1.845-2.314,2.274l0.507,2.063
						c0.027,0.107-0.017,0.21-0.097,0.23l-0.877,0.217c-0.081,0.019-0.167-0.051-0.194-0.159L326.548,128.263L326.548,128.263z
						 M323.698,116.695l-1.015-4.113c-0.344,0.162-0.615,0.437-0.79,0.858c-0.195,0.464-0.213,0.967-0.077,1.517
						c0.111,0.453,0.326,0.809,0.641,1.082C322.811,116.346,323.276,116.553,323.698,116.695L323.698,116.695z M327.335,126.419
						c0.372-0.203,0.676-0.518,0.851-0.998c0.199-0.541,0.174-1.146,0.022-1.761c-0.139-0.563-0.385-1.035-0.765-1.401
						c-0.384-0.368-0.859-0.596-1.316-0.741L327.335,126.419z"/>
					<path style="fill-rule:evenodd;clip-rule:evenodd;fill:#E3A032;" d="M321.676,106.218c-5.65,1.393-8.731,8.601-6.885,16.099
						c1.849,7.498,7.928,12.446,13.578,11.054c5.651-1.393,8.732-8.601,6.884-16.098
						C333.405,109.775,327.326,104.825,321.676,106.218L321.676,106.218z M313.685,122.589c-2.049-8.309,1.366-16.297,7.629-17.841
						c6.262-1.543,12.998,3.942,15.048,12.251c2.048,8.31-1.368,16.298-7.629,17.841
						C322.471,136.385,315.732,130.899,313.685,122.589z"/>
				</g>
			</g>
			<g>
				
					<line style="fill-rule:evenodd;clip-rule:evenodd;fill:none;stroke:#FFFFFF;stroke-width:2.126;stroke-linecap:round;stroke-linejoin:round;stroke-miterlimit:2.6131;" x1="331.953" y1="101.051" x2="331.953" y2="93.132"/>
				
					<line style="fill-rule:evenodd;clip-rule:evenodd;fill:none;stroke:#FFFFFF;stroke-width:2.126;stroke-linecap:round;stroke-linejoin:round;stroke-miterlimit:2.6131;" x1="331.953" y1="89.117" x2="331.953" y2="87.816"/>
			</g>
			<g>
				
					<line style="fill-rule:evenodd;clip-rule:evenodd;fill:none;stroke:#FFFFFF;stroke-width:2.126;stroke-linecap:round;stroke-linejoin:round;stroke-miterlimit:2.6131;" x1="321.825" y1="99.196" x2="321.825" y2="91.276"/>
				
					<line style="fill-rule:evenodd;clip-rule:evenodd;fill:none;stroke:#FFFFFF;stroke-width:2.126;stroke-linecap:round;stroke-linejoin:round;stroke-miterlimit:2.6131;" x1="321.825" y1="87.262" x2="321.825" y2="85.962"/>
			</g>
			<g>
				
					<line style="fill-rule:evenodd;clip-rule:evenodd;fill:none;stroke:#FFFFFF;stroke-width:2.126;stroke-linecap:round;stroke-linejoin:round;stroke-miterlimit:2.6131;" x1="311.097" y1="91.477" x2="311.097" y2="99.397"/>
				
					<line style="fill-rule:evenodd;clip-rule:evenodd;fill:none;stroke:#FFFFFF;stroke-width:2.126;stroke-linecap:round;stroke-linejoin:round;stroke-miterlimit:2.6131;" x1="311.097" y1="103.412" x2="311.097" y2="104.712"/>
			</g>
		</g>
		<g>
			<g>
				<path style="fill-rule:evenodd;clip-rule:evenodd;fill:#94BFDF;" d="M185.527,75.079h4.763c0.736,0,1.338,0.603,1.338,1.339
					v56.685c0,0.737-0.602,1.338-1.338,1.338h-4.763c-0.736,0-1.338-0.602-1.338-1.338V76.418
					C184.188,75.682,184.791,75.079,185.527,75.079z"/>
				<path style="fill-rule:evenodd;clip-rule:evenodd;fill:#94BFDF;" d="M205.929,85.709h4.762c0.737,0,1.339,0.602,1.339,1.339
					v46.055c0,0.737-0.603,1.338-1.339,1.338h-4.762c-0.737,0-1.339-0.602-1.339-1.338V87.048
					C204.589,86.31,205.192,85.709,205.929,85.709z"/>
				<path style="fill-rule:evenodd;clip-rule:evenodd;fill:#94BFDF;" d="M226.33,96.939h4.762c0.737,0,1.339,0.602,1.339,1.338
					v34.826c0,0.737-0.603,1.338-1.339,1.338h-4.762c-0.736,0-1.338-0.602-1.338-1.338V98.277
					C224.991,97.541,225.593,96.939,226.33,96.939z"/>
				<path style="fill-rule:evenodd;clip-rule:evenodd;fill:#94BFDF;" d="M246.73,111.78h4.762c0.737,0,1.34,0.603,1.34,1.338v19.985
					c0,0.737-0.603,1.338-1.34,1.338h-4.762c-0.735,0-1.339-0.602-1.339-1.338v-19.985
					C245.391,112.382,245.995,111.78,246.73,111.78z"/>
				<path style="fill-rule:evenodd;clip-rule:evenodd;fill:#94BFDF;" d="M267.133,120.604h4.761c0.736,0,1.34,0.602,1.34,1.339
					v11.159c0,0.737-0.604,1.338-1.34,1.338h-4.761c-0.737,0-1.341-0.602-1.341-1.338v-11.159
					C265.792,121.206,266.396,120.604,267.133,120.604z"/>
			</g>
			<g>
				<path style="fill-rule:evenodd;clip-rule:evenodd;fill:#FFFFFF;" d="M183.823,72.873h4.762c0.736,0,1.339,0.603,1.339,1.339
					v56.684c0,0.737-0.603,1.34-1.339,1.34h-4.762c-0.737,0-1.339-0.603-1.339-1.34V74.212
					C182.483,73.476,183.086,72.873,183.823,72.873z"/>
				<path style="fill-rule:evenodd;clip-rule:evenodd;fill:#FFFFFF;" d="M204.224,83.502h4.762c0.737,0,1.339,0.603,1.339,1.34
					v46.054c0,0.737-0.602,1.34-1.339,1.34h-4.762c-0.737,0-1.339-0.603-1.339-1.34V84.842
					C202.884,84.104,203.487,83.502,204.224,83.502z"/>
				<path style="fill-rule:evenodd;clip-rule:evenodd;fill:#FFFFFF;" d="M224.625,94.733h4.761c0.737,0,1.34,0.603,1.34,1.338
					v34.825c0,0.737-0.604,1.34-1.34,1.34h-4.761c-0.737,0-1.34-0.603-1.34-1.34V96.071
					C223.285,95.336,223.889,94.733,224.625,94.733z"/>
				<path style="fill-rule:evenodd;clip-rule:evenodd;fill:#FFFFFF;" d="M245.026,109.574h4.762c0.736,0,1.339,0.603,1.339,1.338
					v19.984c0,0.737-0.604,1.34-1.339,1.34h-4.762c-0.737,0-1.339-0.603-1.339-1.34v-19.984
					C243.687,110.176,244.289,109.574,245.026,109.574z"/>
				<path style="fill-rule:evenodd;clip-rule:evenodd;fill:#FFFFFF;" d="M265.428,118.397h4.762c0.736,0,1.339,0.603,1.339,1.339
					v11.159c0,0.737-0.603,1.34-1.339,1.34h-4.762c-0.737,0-1.34-0.603-1.34-1.34v-11.159
					C264.088,119,264.69,118.397,265.428,118.397z"/>
			</g>
			
				<path style="fill-rule:evenodd;clip-rule:evenodd;fill:none;stroke:#D25B5D;stroke-width:2.8346;stroke-linecap:round;stroke-linejoin:round;stroke-miterlimit:2.6131;" d="
				M197.316,63.016l75.081,43.349 M271.73,99.146l0.667,7.218l-5.479,2.308"/>
		</g>
		<g>
			<path style="fill-rule:evenodd;clip-rule:evenodd;fill:#78A4CA;" d="M458.466,351.511h-18.28c-1.09,0-1.979,0.89-1.979,1.979
				v18.282c0,1.088,0.89,1.979,1.979,1.979h18.28c1.09,0,1.981-0.892,1.981-1.979V353.49
				C460.447,352.401,459.556,351.511,458.466,351.511z"/>
			<path style="fill-rule:evenodd;clip-rule:evenodd;fill:#FFFFFF;" d="M457.29,351.511h-18.283c-1.089,0-1.979,0.89-1.979,1.979
				v18.282c0,1.088,0.891,1.979,1.979,1.979h18.283c1.087,0,1.978-0.892,1.978-1.979V353.49
				C459.269,352.401,458.377,351.511,457.29,351.511z"/>
			<path style="fill-rule:evenodd;clip-rule:evenodd;fill:#DEECF3;" d="M454.19,355.281h-12.084c-0.72,0-1.309,0.589-1.309,1.309
				v12.085c0,0.719,0.589,1.306,1.309,1.306h12.084c0.72,0,1.309-0.587,1.309-1.306v-12.085
				C455.499,355.87,454.91,355.281,454.19,355.281z"/>
			<path style="fill-rule:evenodd;clip-rule:evenodd;fill:#FFFFFF;" d="M452.886,357.635h-3.24c-0.193,0-0.35,0.159-0.35,0.351
				v9.289c0,0.192,0.156,0.351,0.35,0.351h3.24c0.192,0,0.351-0.158,0.351-0.351v-9.289
				C453.236,357.794,453.078,357.635,452.886,357.635z"/>
			<path style="fill-rule:evenodd;clip-rule:evenodd;fill:#FFFFFF;" d="M446.65,357.635h-3.239c-0.194,0-0.352,0.159-0.352,0.351
				v9.289c0,0.192,0.157,0.351,0.352,0.351h3.239c0.191,0,0.351-0.158,0.351-0.351v-9.289
				C447.001,357.794,446.842,357.635,446.65,357.635z"/>
		</g>
		<g>
			<path style="fill-rule:evenodd;clip-rule:evenodd;fill:#78A4CA;" d="M430.573,351.511H412.29c-1.09,0-1.98,0.89-1.98,1.979
				v18.282c0,1.088,0.89,1.979,1.98,1.979h18.283c1.087,0,1.979-0.892,1.979-1.979V353.49
				C432.552,352.401,431.66,351.511,430.573,351.511z"/>
			<path style="fill-rule:evenodd;clip-rule:evenodd;fill:#FFFFFF;" d="M429.395,351.511h-18.283c-1.088,0-1.979,0.89-1.979,1.979
				v18.282c0,1.088,0.891,1.979,1.979,1.979h18.283c1.089,0,1.978-0.892,1.978-1.979V353.49
				C431.373,352.401,430.483,351.511,429.395,351.511z"/>
			<path style="fill-rule:evenodd;clip-rule:evenodd;fill:#DEECF3;" d="M426.295,355.281h-12.084c-0.72,0-1.309,0.589-1.309,1.309
				v12.085c0,0.719,0.589,1.306,1.309,1.306h12.084c0.72,0,1.309-0.587,1.309-1.306v-12.085
				C427.604,355.87,427.015,355.281,426.295,355.281z"/>
			<path style="fill-rule:evenodd;clip-rule:evenodd;fill:#FFFFFF;" d="M420.252,367.954c2.934,0,5.324-2.391,5.324-5.322
				c0-2.932-2.391-5.325-5.324-5.325c-2.932,0-5.322,2.393-5.322,5.325C414.93,365.563,417.32,367.954,420.252,367.954z"/>
		</g>
		<g>
			<path style="fill-rule:evenodd;clip-rule:evenodd;fill:#94BFDF;" d="M435.336,226.554c11.59,0,21.04-9.452,21.04-21.04
				c0-11.589-9.45-21.042-21.04-21.042c-11.59,0-21.041,9.453-21.041,21.042C414.295,217.103,423.746,226.554,435.336,226.554z"/>
			<path style="fill-rule:evenodd;clip-rule:evenodd;fill:#FFFFFF;" d="M431.727,223.748c11.589,0,21.039-9.453,21.039-21.04
				c0-11.589-9.45-21.042-21.039-21.042c-11.591,0-21.041,9.453-21.041,21.042C410.686,214.295,420.136,223.748,431.727,223.748z"/>
			<path style="fill-rule:evenodd;clip-rule:evenodd;fill:#D25B5D;" d="M429.452,196.189c0-1.256,1.019-2.275,2.274-2.275
				c1.256,0,2.272,1.019,2.272,2.275v7.546l1.032-1.032c0.889-0.888,2.329-0.888,3.216,0c0.889,0.888,0.889,2.327,0,3.215
				l-4.897,4.897l-0.002,0.002l-0.02,0.02l-0.02,0.018l-0.014,0.014l-0.005,0.006l-0.021,0.019l-0.015,0.013l-0.006,0.006
				l-0.021,0.018l-0.014,0.012l-0.008,0.006l-0.021,0.018l-0.021,0.017l-0.022,0.018l-0.021,0.017l-0.022,0.017l-0.014,0.01
				l-0.008,0.006l-0.023,0.017l-0.022,0.015l-0.022,0.017l-0.013,0.008l-0.012,0.007l-0.022,0.015l-0.013,0.008l-0.012,0.007
				l-0.022,0.015l-0.012,0.007l-0.013,0.007l-0.022,0.014l-0.014,0.007l-0.012,0.007l-0.023,0.014l-0.012,0.006l-0.014,0.007
				l-0.023,0.013l-0.011,0.006l-0.014,0.007l-0.025,0.012l-0.011,0.005l-0.015,0.007l-0.025,0.012l-0.026,0.012l-0.025,0.011
				l-0.01,0.004l-0.016,0.007l-0.026,0.011l-0.011,0.003l-0.003,0.001l-0.04,0.015l-0.008,0.004l-0.003,0.001l-0.041,0.015
				l-0.008,0.002l-0.02,0.006l-0.027,0.009l-0.006,0.002l-0.047,0.015l-0.009,0.002l-0.021,0.005l-0.026,0.007l-0.006,0.002
				l-0.021,0.005l-0.029,0.008h-0.004l-0.023,0.006l-0.027,0.005l-0.005,0.002l-0.024,0.004l-0.028,0.005l-0.005,0.001l-0.022,0.005
				l-0.028,0.004h-0.005l-0.025,0.004l-0.027,0.004h-0.003l-0.026,0.003l-0.029,0.004h-0.003l-0.025,0.003l-0.029,0.002h-0.002
				l-0.028,0.002l-0.027,0.002h-0.002l-0.028,0.001l-0.03,0.001l0,0h-0.03l-0.028,0.001l-0.03-0.001h-0.028h-0.002l-0.029-0.001
				l-0.028-0.001l0,0l-0.03-0.002l-0.027-0.002h-0.002l-0.028-0.002l-0.026-0.003h-0.004l-0.027-0.004l-0.026-0.003h-0.004
				l-0.028-0.004l-0.024-0.004h-0.003l-0.03-0.004l-0.023-0.005l-0.005-0.001l-0.027-0.005l-0.022-0.004l-0.006-0.002l-0.029-0.005
				l-0.021-0.006h-0.004l-0.029-0.008l-0.022-0.005l-0.007-0.002l-0.025-0.007l-0.021-0.005l-0.006-0.002l-0.047-0.015l-0.008-0.002
				l-0.027-0.009l-0.018-0.006l-0.009-0.002l-0.043-0.015l-0.003-0.001l-0.008-0.004l-0.04-0.015l-0.003-0.001l-0.01-0.003
				l-0.025-0.011l-0.017-0.007l-0.01-0.004l-0.025-0.011l-0.024-0.012l-0.026-0.012l-0.014-0.007l-0.012-0.005l-0.025-0.012
				l-0.015-0.007l-0.009-0.006l-0.024-0.013l-0.015-0.007l-0.011-0.006l-0.024-0.014l-0.012-0.007l-0.013-0.007l-0.023-0.014
				l-0.011-0.007l-0.013-0.007l-0.023-0.015l-0.011-0.007l-0.013-0.008l-0.023-0.015l-0.01-0.007l-0.012-0.008l-0.024-0.017
				l-0.021-0.015l-0.022-0.017l-0.009-0.006l-0.015-0.01l-0.021-0.017l-0.022-0.017l-0.021-0.018l-0.022-0.017l-0.021-0.018
				l-0.008-0.006l-0.012-0.012l-0.022-0.018l-0.006-0.006l-0.013-0.013l-0.021-0.019l-0.007-0.006l-0.014-0.014l-0.021-0.018
				l-0.02-0.022l-4.899-4.897c-0.887-0.888-0.887-2.327,0-3.215c0.889-0.888,2.329-0.888,3.216,0l1.032,1.032V196.189z"/>
		</g>
		<g>
			<g>
				<path style="fill-rule:evenodd;clip-rule:evenodd;fill:#FFFFFF;" d="M287.796,62.309h3.713c0.679,0,1.236,0.557,1.236,1.236
					v3.712c0,0.679-0.558,1.236-1.236,1.236h-3.713c-0.68,0-1.235-0.558-1.235-1.236v-3.712
					C286.561,62.866,287.116,62.309,287.796,62.309z"/>
				<path style="fill-rule:evenodd;clip-rule:evenodd;fill:#FFFFFF;" d="M300.472,62.309h3.713c0.678,0,1.235,0.557,1.235,1.236
					v3.712c0,0.679-0.558,1.236-1.235,1.236h-3.713c-0.68,0-1.236-0.558-1.236-1.236v-3.712
					C299.235,62.866,299.792,62.309,300.472,62.309z"/>
				<path style="fill-rule:evenodd;clip-rule:evenodd;fill:#FFFFFF;" d="M313.147,62.309h3.712c0.681,0,1.236,0.557,1.236,1.236
					v3.712c0,0.679-0.556,1.236-1.236,1.236h-3.712c-0.681,0-1.236-0.558-1.236-1.236v-3.712
					C311.911,62.866,312.467,62.309,313.147,62.309z"/>
				<path style="fill-rule:evenodd;clip-rule:evenodd;fill:#FFFFFF;" d="M325.822,62.309h3.713c0.68,0,1.236,0.557,1.236,1.236
					v3.712c0,0.679-0.557,1.236-1.236,1.236h-3.713c-0.68,0-1.236-0.558-1.236-1.236v-3.712
					C324.586,62.866,325.143,62.309,325.822,62.309z"/>
			</g>
			<g>
				<path style="fill-rule:evenodd;clip-rule:evenodd;fill:#FFFFFF;" d="M131.051,253.885h3.711c0.68,0,1.235,0.556,1.235,1.236
					v3.712c0,0.679-0.556,1.236-1.235,1.236h-3.711c-0.681,0-1.236-0.558-1.236-1.236v-3.712
					C129.814,254.441,130.37,253.885,131.051,253.885z"/>
				<path style="fill-rule:evenodd;clip-rule:evenodd;fill:#FFFFFF;" d="M143.726,253.885h3.711c0.68,0,1.236,0.556,1.236,1.236
					v3.712c0,0.679-0.557,1.236-1.236,1.236h-3.711c-0.68,0-1.235-0.558-1.235-1.236v-3.712
					C142.49,254.441,143.046,253.885,143.726,253.885z"/>
				<path style="fill-rule:evenodd;clip-rule:evenodd;fill:#FFFFFF;" d="M156.401,253.885h3.712c0.679,0,1.235,0.556,1.235,1.236
					v3.712c0,0.679-0.557,1.236-1.235,1.236h-3.712c-0.68,0-1.237-0.558-1.237-1.236v-3.712
					C155.165,254.441,155.722,253.885,156.401,253.885z"/>
				<path style="fill-rule:evenodd;clip-rule:evenodd;fill:#FFFFFF;" d="M169.077,253.885h3.712c0.68,0,1.235,0.556,1.235,1.236
					v3.712c0,0.679-0.556,1.236-1.235,1.236h-3.712c-0.68,0-1.236-0.558-1.236-1.236v-3.712
					C167.841,254.441,168.397,253.885,169.077,253.885z"/>
			</g>
			<g>
				<path style="fill-rule:evenodd;clip-rule:evenodd;fill:#FFFFFF;" d="M193.618,369.49v0.998h0.998
					c0.417,0,0.758,0.342,0.758,0.757l0,0c0,0.417-0.341,0.759-0.758,0.759h-0.998V373c0,0.416-0.341,0.758-0.757,0.758l0,0
					c-0.417,0-0.758-0.342-0.758-0.758v-0.997h-0.997c-0.416,0-0.757-0.342-0.757-0.759l0,0c0-0.415,0.341-0.757,0.757-0.757h0.997
					v-0.998c0-0.415,0.341-0.757,0.758-0.757l0,0C193.277,368.733,193.618,369.075,193.618,369.49z"/>
				<path style="fill-rule:evenodd;clip-rule:evenodd;fill:#FFFFFF;" d="M233.728,249.16v0.998h0.997
					c0.417,0,0.758,0.341,0.758,0.758l0,0c0,0.417-0.341,0.757-0.758,0.757h-0.997v0.999c0,0.415-0.341,0.757-0.758,0.757l0,0
					c-0.417,0-0.757-0.342-0.757-0.757v-0.999h-0.996c-0.417,0-0.758-0.341-0.758-0.757l0,0c0-0.417,0.341-0.758,0.758-0.758h0.996
					v-0.998c0-0.417,0.341-0.756,0.757-0.756l0,0C233.387,248.403,233.728,248.743,233.728,249.16z"/>
				<path style="fill-rule:evenodd;clip-rule:evenodd;fill:#FFFFFF;" d="M166.343,229.907v0.997h0.998
					c0.417,0,0.758,0.34,0.758,0.757l0,0c0,0.416-0.341,0.759-0.758,0.759h-0.998v0.996c0,0.417-0.341,0.759-0.758,0.759l0,0
					c-0.417,0-0.757-0.342-0.757-0.759v-0.996h-0.998c-0.417,0-0.758-0.342-0.758-0.759l0,0c0-0.417,0.341-0.757,0.758-0.757h0.998
					v-0.997c0-0.417,0.341-0.757,0.757-0.757l0,0C166.002,229.15,166.343,229.491,166.343,229.907z"/>
				<path style="fill-rule:evenodd;clip-rule:evenodd;fill:#FFFFFF;" d="M374.112,137.655v0.997h0.999
					c0.417,0,0.757,0.342,0.757,0.758l0,0c0,0.417-0.34,0.757-0.757,0.757h-0.999v0.999c0,0.416-0.34,0.757-0.756,0.757l0,0
					c-0.417,0-0.758-0.341-0.758-0.757v-0.999h-0.997c-0.416,0-0.758-0.341-0.758-0.757l0,0c0-0.416,0.342-0.758,0.758-0.758h0.997
					v-0.997c0-0.417,0.341-0.757,0.758-0.757l0,0C373.772,136.898,374.112,137.238,374.112,137.655z"/>
				<path style="fill-rule:evenodd;clip-rule:evenodd;fill:#FFFFFF;" d="M172.85,142.769v0.997h0.998
					c0.416,0,0.757,0.342,0.757,0.757l0,0c0,0.417-0.341,0.758-0.757,0.758h-0.998v0.997c0,0.417-0.341,0.756-0.757,0.756l0,0
					c-0.417,0-0.757-0.34-0.757-0.756v-0.997h-0.998c-0.417,0-0.758-0.341-0.758-0.758l0,0c0-0.416,0.341-0.757,0.758-0.757h0.998
					v-0.997c0-0.416,0.341-0.757,0.757-0.757l0,0C172.509,142.012,172.85,142.353,172.85,142.769z"/>
				<path style="fill-rule:evenodd;clip-rule:evenodd;fill:#FFFFFF;" d="M252.786,71.072v0.998h0.997
					c0.417,0,0.759,0.341,0.759,0.757l0,0c0,0.417-0.342,0.758-0.759,0.758h-0.997v0.997c0,0.417-0.342,0.758-0.758,0.758l0,0
					c-0.417,0-0.757-0.341-0.757-0.758v-0.997h-0.998c-0.417,0-0.758-0.341-0.758-0.758l0,0c0-0.416,0.341-0.757,0.758-0.757h0.998
					v-0.998c0-0.417,0.34-0.758,0.757-0.758l0,0C252.444,70.314,252.786,70.655,252.786,71.072z"/>
				<path style="fill-rule:evenodd;clip-rule:evenodd;fill:#FFFFFF;" d="M176.577,60.643v0.997h0.997
					c0.417,0,0.758,0.341,0.758,0.757l0,0c0,0.417-0.341,0.758-0.758,0.758h-0.997v0.998c0,0.416-0.341,0.756-0.757,0.756l0,0
					c-0.417,0-0.758-0.341-0.758-0.756v-0.998h-0.998c-0.417,0-0.758-0.341-0.758-0.758l0,0c0-0.417,0.341-0.757,0.758-0.757h0.998
					v-0.997c0-0.417,0.341-0.758,0.758-0.758l0,0C176.236,59.885,176.577,60.226,176.577,60.643z"/>
			</g>
		</g>
		<path style="fill-rule:evenodd;clip-rule:evenodd;fill:#242854;" d="M56.923,405.099h407.068c4.97,0,9.039,4.069,9.039,9.038l0,0
			c0,4.97-4.069,9.039-9.039,9.039h-30.498c-2.763,0-5.022,2.261-5.022,5.022v0.002c0,2.761,2.259,5.021,5.022,5.021h11.157
			c3.452,0,6.278,2.824,6.278,6.276l0,0c0,3.452-2.825,6.276-6.278,6.276H77.261c-3.451,0-6.277-2.822-6.277-6.276l0,0
			c0-3.453,2.825-6.276,6.277-6.276h8.789c2.762,0,5.021-2.261,5.021-5.021v-0.002c0-2.762-2.26-5.022-5.021-5.022H56.923
			c-4.972,0-9.039-4.067-9.039-9.039l0,0C47.885,409.166,51.955,405.099,56.923,405.099L56.923,405.099z M61.631,445.774
			c3.314,0,6.027-2.712,6.027-6.026v-0.5c0-3.315-2.712-6.026-6.027-6.026l0,0c-3.313,0-6.026,2.711-6.026,6.026v0.5
			C55.605,443.063,58.316,445.774,61.631,445.774L61.631,445.774z"/>
	</g>
</g>
</svg>
